<?xml version="1.0" encoding="UTF-8"?>
<svg version="1.1" xmlns="http://www.w3.org/2000/svg" width="1891" height="880">
<path d="M0 0 C624.03 0 1248.06 0 1891 0 C1891 290.4 1891 580.8 1891 880 C1266.97 880 642.94 880 0 880 C0 589.6 0 299.2 0 0 Z " fill="#212121" transform="translate(0,0)"/>
<path d="M0 0 C0.9564359 -0.00301597 1.9128718 -0.00603194 2.8982906 -0.0091393 C3.95849706 -0.00736983 5.01870351 -0.00560036 6.11103743 -0.00377727 C7.23461564 -0.0058299 8.35819385 -0.00788253 9.51581988 -0.00999737 C13.32595462 -0.01570569 17.13605366 -0.01420543 20.94619197 -0.0127914 C23.68734814 -0.0148216 26.42850193 -0.01834627 29.16965663 -0.0217948 C35.94216635 -0.02939103 42.71466819 -0.03156868 49.48718172 -0.03212385 C57.59491853 -0.03303589 65.70264801 -0.03969864 73.81038168 -0.04647068 C93.40879506 -0.06254923 113.00720768 -0.06843593 132.60562647 -0.07321942 C141.87202596 -0.07555338 151.13842484 -0.07915579 160.40482384 -0.0829148 C192.10796802 -0.09575155 223.81111185 -0.10647095 255.51425856 -0.1099174 C257.50530243 -0.11013904 259.4963463 -0.11036082 261.48739017 -0.11058275 C263.48331635 -0.1108034 265.47924253 -0.11102388 267.4751687 -0.1112442 C271.47952245 -0.11168676 275.48387619 -0.11213387 279.48822993 -0.11258388 C280.48108075 -0.11269327 281.47393158 -0.11280266 282.49686879 -0.11291536 C314.70226744 -0.11654735 346.90764359 -0.13247212 379.11303362 -0.15577424 C413.14113695 -0.18035028 447.16922742 -0.19408919 481.19733989 -0.19528532 C484.93016432 -0.19545678 488.66298874 -0.19567221 492.39581317 -0.19591975 C493.7745606 -0.19600341 493.7745606 -0.19600341 495.18116151 -0.19608875 C509.9960355 -0.1972411 524.81088648 -0.2082787 539.62575268 -0.22280681 C554.50643917 -0.23714754 569.38709605 -0.24042254 584.26778755 -0.23236683 C593.11615191 -0.22789918 601.96442091 -0.23181635 610.81277281 -0.24760534 C616.71715355 -0.25731876 622.62146712 -0.2562121 628.52584717 -0.24616911 C631.89411971 -0.24075057 635.26205795 -0.24178974 638.63033996 -0.25267783 C642.25311343 -0.26365256 645.87539398 -0.25636645 649.49815291 -0.2442863 C650.55133587 -0.25188149 651.60451882 -0.25947669 652.68961641 -0.26730204 C659.36526642 -0.21883783 662.96190908 0.56750109 667.77450007 5.43465734 C669.82016767 8.63967641 669.99447225 10.43783848 669.99506587 14.21554112 C670.00913729 16.02266576 670.00913729 16.02266576 670.02349299 17.86629796 C670.01225901 19.1591068 670.00102504 20.45191564 669.98945063 21.7839005 C669.98960574 23.13241203 669.99109659 24.48092401 669.99386042 25.82943273 C669.99524226 28.65055697 669.98272368 31.47117147 669.95990962 34.29220128 C669.93152475 37.90033454 669.93426476 41.50762141 669.94699973 45.11581731 C669.95396946 47.89890267 669.94615304 50.68179391 669.9337427 53.46485448 C669.92705841 55.43955948 669.93136244 57.41429182 669.93584651 59.38900304 C669.92316233 60.59375279 669.91047816 61.79850255 669.89740962 63.03975987 C669.89200663 64.09723424 669.88660365 65.1547086 669.88103694 66.24422765 C669.2718049 70.77547334 666.98577552 74.21730163 663.49335688 77.1276505 C660.62462769 78.08389356 658.84205324 78.25448574 655.86481661 78.258753 C654.90664586 78.26253765 653.94847512 78.26632229 652.9612689 78.27022162 C651.37575728 78.26885373 651.37575728 78.26885373 649.75821513 78.2674582 C648.63408227 78.27040962 647.50994941 78.27336105 646.35175192 78.27640191 C642.54573612 78.28513554 638.73975056 78.28667741 634.93372554 78.28827977 C632.19313098 78.29246223 629.45253989 78.29812258 626.71194786 78.30369741 C619.94464816 78.31652945 613.1773523 78.32390052 606.41004327 78.32959619 C598.30763384 78.33664763 590.20523588 78.34940582 582.10283377 78.36214539 C561.58740213 78.3940161 541.07196291 78.41383366 520.5565148 78.43143091 C515.00173023 78.43619753 509.44694589 78.44120638 503.89216155 78.44623613 C469.42609442 78.47727853 434.96002537 78.50390224 400.49394816 78.52065492 C392.50693463 78.52459229 384.51992113 78.52860411 376.53290766 78.5326798 C375.54060125 78.53318146 374.54829483 78.53368313 373.52591852 78.5342 C341.34115507 78.55062408 309.15646758 78.58908895 276.97174151 78.6399669 C243.89715454 78.69215645 210.82260802 78.72496474 177.74797903 78.73223245 C173.07922482 78.73326109 168.41047069 78.73449742 163.74171656 78.73585248 C162.82283296 78.73611052 161.90394935 78.73636856 160.95722078 78.73663441 C146.15298939 78.74133442 131.34885791 78.76628998 116.54466395 78.79860391 C101.67188706 78.83059492 86.79922299 78.84062819 71.92641577 78.82817196 C63.08501912 78.82142166 54.24400924 78.83144619 45.40267283 78.86529896 C39.5004321 78.88625317 33.59845425 78.88550782 27.69620606 78.86696555 C24.33052028 78.85701464 20.96617558 78.85991955 17.60046139 78.88262837 C13.97692981 78.90560295 10.3553502 78.89189225 6.7318632 78.86873078 C5.68422012 78.88420702 4.63657704 78.89968325 3.5571872 78.91562846 C-2.48656964 78.82985855 -5.8661025 77.93896528 -10.2728406 73.70706565 C-12.79661521 70.47633156 -12.65624399 67.23164472 -12.71538335 63.29854894 C-12.73467397 62.1001035 -12.75396459 60.90165807 -12.77383977 59.6668961 C-12.83157634 54.185902 -12.88115615 48.70505642 -12.91167241 43.22384191 C-12.92946691 40.33308944 -12.96425765 37.44331598 -13.01421148 34.55294347 C-13.07459354 31.05451858 -13.10517165 27.55699917 -13.1148451 24.05807805 C-13.12749918 22.08655659 -13.16950642 20.11529354 -13.21207219 18.14419103 C-13.18913209 8.13098314 -13.18913209 8.13098314 -9.59282476 3.82003331 C-6.43882226 0.75923345 -4.37434481 0.00272075 0 0 Z " fill="#222222" transform="translate(617.5066431164742,364.8723495006561)"/>
<path d="M0 0 C0.9564359 -0.00301597 1.9128718 -0.00603194 2.8982906 -0.0091393 C3.95849706 -0.00736983 5.01870351 -0.00560036 6.11103743 -0.00377727 C7.23461564 -0.0058299 8.35819385 -0.00788253 9.51581988 -0.00999737 C13.32595462 -0.01570569 17.13605366 -0.01420543 20.94619197 -0.0127914 C23.68734814 -0.0148216 26.42850193 -0.01834627 29.16965663 -0.0217948 C35.94216635 -0.02939103 42.71466819 -0.03156868 49.48718172 -0.03212385 C57.59491853 -0.03303589 65.70264801 -0.03969864 73.81038168 -0.04647068 C93.40879506 -0.06254923 113.00720768 -0.06843593 132.60562647 -0.07321942 C141.87202596 -0.07555338 151.13842484 -0.07915579 160.40482384 -0.0829148 C192.10796802 -0.09575155 223.81111185 -0.10647095 255.51425856 -0.1099174 C257.50530243 -0.11013904 259.4963463 -0.11036082 261.48739017 -0.11058275 C263.48331635 -0.1108034 265.47924253 -0.11102388 267.4751687 -0.1112442 C271.47952245 -0.11168676 275.48387619 -0.11213387 279.48822993 -0.11258388 C280.48108075 -0.11269327 281.47393158 -0.11280266 282.49686879 -0.11291536 C314.70226744 -0.11654735 346.90764359 -0.13247212 379.11303362 -0.15577424 C413.14113695 -0.18035028 447.16922742 -0.19408919 481.19733989 -0.19528532 C484.93016432 -0.19545678 488.66298874 -0.19567221 492.39581317 -0.19591975 C493.7745606 -0.19600341 493.7745606 -0.19600341 495.18116151 -0.19608875 C509.9960355 -0.1972411 524.81088648 -0.2082787 539.62575268 -0.22280681 C554.50643917 -0.23714754 569.38709605 -0.24042254 584.26778755 -0.23236683 C593.11615191 -0.22789918 601.96442091 -0.23181635 610.81277281 -0.24760534 C616.71715355 -0.25731876 622.62146712 -0.2562121 628.52584717 -0.24616911 C631.89411971 -0.24075057 635.26205795 -0.24178974 638.63033996 -0.25267783 C642.25311343 -0.26365256 645.87539398 -0.25636645 649.49815291 -0.2442863 C650.55133587 -0.25188149 651.60451882 -0.25947669 652.68961641 -0.26730204 C659.36526642 -0.21883783 662.96190908 0.56750109 667.77450007 5.43465734 C669.82016767 8.63967641 669.99447225 10.43783848 669.99506587 14.21554112 C670.00913729 16.02266576 670.00913729 16.02266576 670.02349299 17.86629796 C670.01225901 19.1591068 670.00102504 20.45191564 669.98945063 21.7839005 C669.98960574 23.13241203 669.99109659 24.48092401 669.99386042 25.82943273 C669.99524226 28.65055697 669.98272368 31.47117147 669.95990962 34.29220128 C669.93152475 37.90033454 669.93426476 41.50762141 669.94699973 45.11581731 C669.95396946 47.89890267 669.94615304 50.68179391 669.9337427 53.46485448 C669.92705841 55.43955948 669.93136244 57.41429182 669.93584651 59.38900304 C669.92316233 60.59375279 669.91047816 61.79850255 669.89740962 63.03975987 C669.89200663 64.09723424 669.88660365 65.1547086 669.88103694 66.24422765 C669.2718049 70.77547334 666.98577552 74.21730163 663.49335688 77.1276505 C660.62462769 78.08389356 658.84205324 78.25448574 655.86481661 78.258753 C654.90664586 78.26253765 653.94847512 78.26632229 652.9612689 78.27022162 C651.37575728 78.26885373 651.37575728 78.26885373 649.75821513 78.2674582 C648.63408227 78.27040962 647.50994941 78.27336105 646.35175192 78.27640191 C642.54573612 78.28513554 638.73975056 78.28667741 634.93372554 78.28827977 C632.19313098 78.29246223 629.45253989 78.29812258 626.71194786 78.30369741 C619.94464816 78.31652945 613.1773523 78.32390052 606.41004327 78.32959619 C598.30763384 78.33664763 590.20523588 78.34940582 582.10283377 78.36214539 C561.58740213 78.3940161 541.07196291 78.41383366 520.5565148 78.43143091 C515.00173023 78.43619753 509.44694589 78.44120638 503.89216155 78.44623613 C469.42609442 78.47727853 434.96002537 78.50390224 400.49394816 78.52065492 C392.50693463 78.52459229 384.51992113 78.52860411 376.53290766 78.5326798 C375.54060125 78.53318146 374.54829483 78.53368313 373.52591852 78.5342 C341.34115507 78.55062408 309.15646758 78.58908895 276.97174151 78.6399669 C243.89715454 78.69215645 210.82260802 78.72496474 177.74797903 78.73223245 C173.07922482 78.73326109 168.41047069 78.73449742 163.74171656 78.73585248 C162.82283296 78.73611052 161.90394935 78.73636856 160.95722078 78.73663441 C146.15298939 78.74133442 131.34885791 78.76628998 116.54466395 78.79860391 C101.67188706 78.83059492 86.79922299 78.84062819 71.92641577 78.82817196 C63.08501912 78.82142166 54.24400924 78.83144619 45.40267283 78.86529896 C39.5004321 78.88625317 33.59845425 78.88550782 27.69620606 78.86696555 C24.33052028 78.85701464 20.96617558 78.85991955 17.60046139 78.88262837 C13.97692981 78.90560295 10.3553502 78.89189225 6.7318632 78.86873078 C5.68422012 78.88420702 4.63657704 78.89968325 3.5571872 78.91562846 C-2.48656964 78.82985855 -5.8661025 77.93896528 -10.2728406 73.70706565 C-12.79661521 70.47633156 -12.65624399 67.23164472 -12.71538335 63.29854894 C-12.73467397 62.1001035 -12.75396459 60.90165807 -12.77383977 59.6668961 C-12.83157634 54.185902 -12.88115615 48.70505642 -12.91167241 43.22384191 C-12.92946691 40.33308944 -12.96425765 37.44331598 -13.01421148 34.55294347 C-13.07459354 31.05451858 -13.10517165 27.55699917 -13.1148451 24.05807805 C-13.12749918 22.08655659 -13.16950642 20.11529354 -13.21207219 18.14419103 C-13.18913209 8.13098314 -13.18913209 8.13098314 -9.59282476 3.82003331 C-6.43882226 0.75923345 -4.37434481 0.00272075 0 0 Z M-8.50664312 7.1276505 C-9.82289309 9.76015046 -9.64820608 11.74326537 -9.66777593 14.6913712 C-9.67738347 15.85630605 -9.68699102 17.02124089 -9.6968897 18.22147679 C-9.70113958 19.48602193 -9.70538945 20.75056706 -9.70976812 22.05343175 C-9.71546819 23.34831014 -9.72116826 24.64318852 -9.72704107 25.97730565 C-9.7375511 28.72200467 -9.74339339 31.46667441 -9.74687749 34.21139073 C-9.7523552 37.72199208 -9.77636711 41.23220419 -9.80484945 44.74268365 C-9.82800066 48.09625884 -9.82992746 51.44978078 -9.83476812 54.80343175 C-9.84711492 56.06190419 -9.85946172 57.32037663 -9.87218267 58.61698461 C-9.86918157 59.79137593 -9.86618047 60.96576726 -9.86308843 62.1757462 C-9.86673406 63.2067394 -9.87037969 64.23773259 -9.87413579 65.299968 C-9.44364466 68.61239388 -8.48296036 70.45374028 -6.50664312 73.1276505 C-2.61371525 75.72293574 0.62529014 75.40190172 5.13970679 75.37374616 C6.48715617 75.37720769 6.48715617 75.37720769 7.86182675 75.38073915 C10.89961408 75.38607162 13.9371933 75.3770282 16.97497004 75.36815953 C19.16370391 75.36903094 21.35243757 75.37078071 23.54117012 75.37333786 C29.57725265 75.37782823 35.61326475 75.36978459 41.6493383 75.35978174 C48.15036883 75.35117378 54.65139514 75.35406552 61.15242976 75.35558629 C72.42309111 75.35698299 83.69373083 75.35041218 94.96438617 75.33911061 C106.78774263 75.32728516 118.6110899 75.31958046 130.43445224 75.31740499 C131.16900981 75.31726751 131.90356738 75.31713003 132.66038428 75.31698838 C136.3906812 75.31631174 140.12097813 75.31570896 143.85127506 75.31513463 C170.28755796 75.31093143 196.72382882 75.2974501 223.16010493 75.27852941 C248.84597667 75.26016697 274.53184513 75.24599659 300.21772212 75.23751378 C301.00917717 75.23725073 301.80063223 75.23698768 302.61607077 75.23671665 C310.56403384 75.23407966 318.51199695 75.23152803 326.45996007 75.22903893 C342.65153787 75.22396622 358.84311546 75.21832371 375.03469294 75.21233678 C375.7791902 75.2120622 376.52368746 75.21178762 377.29074524 75.21150472 C427.02495448 75.19309679 476.75915566 75.16094967 526.49335688 75.1276505 C526.49335688 51.3676505 526.49335688 27.6076505 526.49335688 3.1276505 C476.03537443 3.06003768 425.57739412 2.99551077 375.11937922 2.95827794 C373.9996733 2.9574496 373.9996733 2.9574496 372.85734706 2.95660452 C356.63559204 2.94463365 340.41383653 2.93355281 324.19208028 2.92338918 C316.23724854 2.91839972 308.28241694 2.91321352 300.3275854 2.90792394 C299.53597257 2.9074009 298.74435973 2.90687786 297.92875864 2.90633898 C272.25772971 2.88928531 246.58673595 2.85923391 220.91572833 2.82246162 C194.54142078 2.78475039 168.16713269 2.76011318 141.79279863 2.75199054 C138.06993461 2.75083787 134.34707066 2.74953533 130.62420672 2.74814153 C129.89147408 2.74787184 129.15874144 2.74760214 128.40380478 2.74732428 C116.59588328 2.7425924 104.78802187 2.72402671 92.98012489 2.70032236 C81.11702722 2.67680117 69.25399457 2.66809605 57.39087442 2.67364499 C50.95996452 2.67621588 44.52923137 2.67217821 38.09835261 2.6508286 C32.21673578 2.63144427 26.33541552 2.63032762 20.45378538 2.64405492 C18.32046098 2.64575293 16.1871185 2.64061034 14.05383001 2.62811777 C11.16411983 2.61217283 8.27549433 2.62065027 5.38580245 2.63545918 C4.54863443 2.62495113 3.71146642 2.61444308 2.84892967 2.6036166 C-2.19049706 2.66237582 -4.85849062 3.3203971 -8.50664312 7.1276505 Z " fill="#DC2626" transform="translate(617.5066431164742,364.8723495006561)"/>
<path d="M0 0 C1.03046448 -0.00571014 2.06092896 -0.01142029 3.12261963 -0.01730347 C4.25771469 -0.01842133 5.39280975 -0.01953918 6.56230164 -0.02069092 C7.7542514 -0.02565582 8.94620117 -0.03062073 10.17427063 -0.03573608 C13.44918264 -0.04785765 16.72405893 -0.05530641 19.99898934 -0.05974674 C22.04500559 -0.06267687 24.09101622 -0.06678159 26.13702965 -0.07125092 C32.53839127 -0.08492838 38.93974007 -0.09459344 45.3411153 -0.09845281 C52.73064201 -0.10293233 60.11998364 -0.12047412 67.50945407 -0.1494534 C73.22078178 -0.17107386 78.93205744 -0.1811573 84.64342564 -0.18249393 C88.05467699 -0.18354184 91.4657544 -0.1894462 94.87696266 -0.20731354 C98.68367731 -0.22433131 102.48993959 -0.22250387 106.29667664 -0.21600342 C107.42569901 -0.2252182 108.55472137 -0.23443298 109.71795654 -0.243927 C110.75688049 -0.23835785 111.79580444 -0.2327887 112.86621094 -0.22705078 C113.76604863 -0.22851734 114.66588633 -0.2299839 115.59299183 -0.2314949 C118.72044007 0.22816608 120.57522662 1.29329418 123.12358093 3.14044189 C125.40161073 6.55748659 125.3802094 7.80121538 125.39823914 11.81768799 C125.40777115 12.9825473 125.41730316 14.14740662 125.42712402 15.3475647 C125.42575691 17.23664047 125.42575691 17.23664047 125.42436218 19.16387939 C125.42864731 20.45734283 125.43293243 21.75080627 125.43734741 23.08346558 C125.4448082 25.82222591 125.44451992 28.56085734 125.43925476 31.29962158 C125.43346709 34.80238265 125.45037403 38.30461373 125.47359943 41.80728722 C125.49191366 45.15533984 125.48815065 48.50327697 125.48686218 51.85137939 C125.49607193 53.10671478 125.50528168 54.36205017 125.51477051 55.65542603 C125.50854172 56.82658966 125.50231293 57.9977533 125.49589539 59.20440674 C125.49652481 60.23238373 125.49715424 61.26036072 125.49780273 62.31948853 C125.05594508 65.65029351 124.16138254 67.48038536 122.12358093 70.14044189 C119.02982453 72.08544217 116.62801894 72.39433394 113.00665283 72.40786743 C111.97343903 72.4163974 110.94022522 72.42492737 109.8757019 72.43371582 C108.74779739 72.43280945 107.61989288 72.43190308 106.45780945 72.43096924 C104.66944672 72.44104507 104.66944672 72.44104507 102.84495544 72.45132446 C99.5783921 72.46706624 96.31198138 72.47367938 93.04538465 72.47495604 C91.00370461 72.47637855 88.96205116 72.48064999 86.92037773 72.48595047 C79.79530523 72.5044464 72.67030751 72.51262149 65.54521179 72.51104736 C58.90700901 72.50984552 52.26913114 72.53095695 45.63101059 72.56253469 C39.92812337 72.58869532 34.22534231 72.59941478 28.52239555 72.59813654 C25.117837 72.59762691 21.71356737 72.60331043 18.30906868 72.62449265 C14.51201882 72.64404605 10.71580979 72.63835573 6.91874695 72.62628174 C5.79286667 72.63752075 4.66698639 72.64875977 3.50698853 72.66033936 C-4.08671815 72.59885155 -4.08671815 72.59885155 -8.05111694 70.2975769 C-11.00147569 66.81085431 -11.01116427 63.8690082 -11.05342102 59.4631958 C-11.06625626 58.29833649 -11.07909149 57.13347717 -11.09231567 55.93331909 C-11.09970261 54.67393524 -11.10708954 53.41455139 -11.11470032 52.11700439 C-11.12277206 50.82354095 -11.13084381 49.53007751 -11.13916016 48.19741821 C-11.1541712 45.45870088 -11.16401732 42.72000935 -11.17158508 39.98126221 C-11.18265299 36.47842065 -11.21706342 32.97621374 -11.25675678 29.47359657 C-11.28922899 26.12559132 -11.29370155 22.77765496 -11.30220032 19.42950439 C-11.3197084 18.17416901 -11.33721649 16.91883362 -11.35525513 15.62545776 C-11.35232956 14.45429413 -11.34940399 13.28313049 -11.34638977 12.07647705 C-11.35225601 11.04850006 -11.35812225 10.02052307 -11.36416626 8.96139526 C-10.74808955 5.39823038 -9.35002568 3.72721134 -6.87641907 1.14044189 C-4.40422883 -0.09565322 -2.76587648 0.00915488 0 0 Z " fill="#018001" transform="translate(888.8764190673828,529.8595581054688)"/>
<path d="M0 0 C0.9564359 -0.00301597 1.9128718 -0.00603194 2.8982906 -0.0091393 C3.95849706 -0.00736983 5.01870351 -0.00560036 6.11103743 -0.00377727 C7.23461564 -0.0058299 8.35819385 -0.00788253 9.51581988 -0.00999737 C13.32595462 -0.01570569 17.13605366 -0.01420543 20.94619197 -0.0127914 C23.68734814 -0.0148216 26.42850193 -0.01834627 29.16965663 -0.0217948 C35.94216635 -0.02939103 42.71466819 -0.03156868 49.48718172 -0.03212385 C57.59491853 -0.03303589 65.70264801 -0.03969864 73.81038168 -0.04647068 C93.40879506 -0.06254923 113.00720768 -0.06843593 132.60562647 -0.07321942 C141.87202596 -0.07555338 151.13842484 -0.07915579 160.40482384 -0.0829148 C192.10796802 -0.09575155 223.81111185 -0.10647095 255.51425856 -0.1099174 C257.50530243 -0.11013904 259.4963463 -0.11036082 261.48739017 -0.11058275 C263.48331635 -0.1108034 265.47924253 -0.11102388 267.4751687 -0.1112442 C271.47952245 -0.11168676 275.48387619 -0.11213387 279.48822993 -0.11258388 C280.48108075 -0.11269327 281.47393158 -0.11280266 282.49686879 -0.11291536 C314.70226744 -0.11654735 346.90764359 -0.13247212 379.11303362 -0.15577424 C413.14113695 -0.18035028 447.16922742 -0.19408919 481.19733989 -0.19528532 C484.93016432 -0.19545678 488.66298874 -0.19567221 492.39581317 -0.19591975 C493.7745606 -0.19600341 493.7745606 -0.19600341 495.18116151 -0.19608875 C509.9960355 -0.1972411 524.81088648 -0.2082787 539.62575268 -0.22280681 C554.50643917 -0.23714754 569.38709605 -0.24042254 584.26778755 -0.23236683 C593.11615191 -0.22789918 601.96442091 -0.23181635 610.81277281 -0.24760534 C616.71715355 -0.25731876 622.62146712 -0.2562121 628.52584717 -0.24616911 C631.89411971 -0.24075057 635.26205795 -0.24178974 638.63033996 -0.25267783 C642.25311343 -0.26365256 645.87539398 -0.25636645 649.49815291 -0.2442863 C650.55133587 -0.25188149 651.60451882 -0.25947669 652.68961641 -0.26730204 C659.36526642 -0.21883783 662.96190908 0.56750109 667.77450007 5.43465734 C669.82016767 8.63967641 669.99447225 10.43783848 669.99506587 14.21554112 C670.00913729 16.02266576 670.00913729 16.02266576 670.02349299 17.86629796 C670.01225901 19.1591068 670.00102504 20.45191564 669.98945063 21.7839005 C669.98960574 23.13241203 669.99109659 24.48092401 669.99386042 25.82943273 C669.99524226 28.65055697 669.98272368 31.47117147 669.95990962 34.29220128 C669.93152475 37.90033454 669.93426476 41.50762141 669.94699973 45.11581731 C669.95396946 47.89890267 669.94615304 50.68179391 669.9337427 53.46485448 C669.92705841 55.43955948 669.93136244 57.41429182 669.93584651 59.38900304 C669.92316233 60.59375279 669.91047816 61.79850255 669.89740962 63.03975987 C669.89200663 64.09723424 669.88660365 65.1547086 669.88103694 66.24422765 C669.2718049 70.77547334 666.98577552 74.21730163 663.49335688 77.1276505 C660.62462769 78.08389356 658.84205324 78.25448574 655.86481661 78.258753 C654.90664586 78.26253765 653.94847512 78.26632229 652.9612689 78.27022162 C651.37575728 78.26885373 651.37575728 78.26885373 649.75821513 78.2674582 C648.63408227 78.27040962 647.50994941 78.27336105 646.35175192 78.27640191 C642.54573612 78.28513554 638.73975056 78.28667741 634.93372554 78.28827977 C632.19313098 78.29246223 629.45253989 78.29812258 626.71194786 78.30369741 C619.94464816 78.31652945 613.1773523 78.32390052 606.41004327 78.32959619 C598.30763384 78.33664763 590.20523588 78.34940582 582.10283377 78.36214539 C561.58740213 78.3940161 541.07196291 78.41383366 520.5565148 78.43143091 C515.00173023 78.43619753 509.44694589 78.44120638 503.89216155 78.44623613 C469.42609442 78.47727853 434.96002537 78.50390224 400.49394816 78.52065492 C392.50693463 78.52459229 384.51992113 78.52860411 376.53290766 78.5326798 C375.54060125 78.53318146 374.54829483 78.53368313 373.52591852 78.5342 C341.34115507 78.55062408 309.15646758 78.58908895 276.97174151 78.6399669 C243.89715454 78.69215645 210.82260802 78.72496474 177.74797903 78.73223245 C173.07922482 78.73326109 168.41047069 78.73449742 163.74171656 78.73585248 C162.82283296 78.73611052 161.90394935 78.73636856 160.95722078 78.73663441 C146.15298939 78.74133442 131.34885791 78.76628998 116.54466395 78.79860391 C101.67188706 78.83059492 86.79922299 78.84062819 71.92641577 78.82817196 C63.08501912 78.82142166 54.24400924 78.83144619 45.40267283 78.86529896 C39.5004321 78.88625317 33.59845425 78.88550782 27.69620606 78.86696555 C24.33052028 78.85701464 20.96617558 78.85991955 17.60046139 78.88262837 C13.97692981 78.90560295 10.3553502 78.89189225 6.7318632 78.86873078 C5.68422012 78.88420702 4.63657704 78.89968325 3.5571872 78.91562846 C-2.48656964 78.82985855 -5.8661025 77.93896528 -10.2728406 73.70706565 C-12.79661521 70.47633156 -12.65624399 67.23164472 -12.71538335 63.29854894 C-12.73467397 62.1001035 -12.75396459 60.90165807 -12.77383977 59.6668961 C-12.83157634 54.185902 -12.88115615 48.70505642 -12.91167241 43.22384191 C-12.92946691 40.33308944 -12.96425765 37.44331598 -13.01421148 34.55294347 C-13.07459354 31.05451858 -13.10517165 27.55699917 -13.1148451 24.05807805 C-13.12749918 22.08655659 -13.16950642 20.11529354 -13.21207219 18.14419103 C-13.18913209 8.13098314 -13.18913209 8.13098314 -9.59282476 3.82003331 C-6.43882226 0.75923345 -4.37434481 0.00272075 0 0 Z M-8.50664312 7.1276505 C-9.82289309 9.76015046 -9.64820608 11.74326537 -9.66777593 14.6913712 C-9.67738347 15.85630605 -9.68699102 17.02124089 -9.6968897 18.22147679 C-9.70113958 19.48602193 -9.70538945 20.75056706 -9.70976812 22.05343175 C-9.71546819 23.34831014 -9.72116826 24.64318852 -9.72704107 25.97730565 C-9.7375511 28.72200467 -9.74339339 31.46667441 -9.74687749 34.21139073 C-9.7523552 37.72199208 -9.77636711 41.23220419 -9.80484945 44.74268365 C-9.82800066 48.09625884 -9.82992746 51.44978078 -9.83476812 54.80343175 C-9.84711492 56.06190419 -9.85946172 57.32037663 -9.87218267 58.61698461 C-9.86918157 59.79137593 -9.86618047 60.96576726 -9.86308843 62.1757462 C-9.86673406 63.2067394 -9.87037969 64.23773259 -9.87413579 65.299968 C-9.44364466 68.61239388 -8.48296036 70.45374028 -6.50664312 73.1276505 C-2.61371525 75.72293574 0.62529014 75.40190172 5.13970679 75.37374616 C6.48715617 75.37720769 6.48715617 75.37720769 7.86182675 75.38073915 C10.89961408 75.38607162 13.9371933 75.3770282 16.97497004 75.36815953 C19.16370391 75.36903094 21.35243757 75.37078071 23.54117012 75.37333786 C29.57725265 75.37782823 35.61326475 75.36978459 41.6493383 75.35978174 C48.15036883 75.35117378 54.65139514 75.35406552 61.15242976 75.35558629 C72.42309111 75.35698299 83.69373083 75.35041218 94.96438617 75.33911061 C106.78774263 75.32728516 118.6110899 75.31958046 130.43445224 75.31740499 C131.16900981 75.31726751 131.90356738 75.31713003 132.66038428 75.31698838 C136.3906812 75.31631174 140.12097813 75.31570896 143.85127506 75.31513463 C170.28755796 75.31093143 196.72382882 75.2974501 223.16010493 75.27852941 C248.84597667 75.26016697 274.53184513 75.24599659 300.21772212 75.23751378 C301.00917717 75.23725073 301.80063223 75.23698768 302.61607077 75.23671665 C310.56403384 75.23407966 318.51199695 75.23152803 326.45996007 75.22903893 C342.65153787 75.22396622 358.84311546 75.21832371 375.03469294 75.21233678 C375.7791902 75.2120622 376.52368746 75.21178762 377.29074524 75.21150472 C427.02495448 75.19309679 476.75915566 75.16094967 526.49335688 75.1276505 C526.49335688 51.3676505 526.49335688 27.6076505 526.49335688 3.1276505 C476.03537443 3.06003768 425.57739412 2.99551077 375.11937922 2.95827794 C373.9996733 2.9574496 373.9996733 2.9574496 372.85734706 2.95660452 C356.63559204 2.94463365 340.41383653 2.93355281 324.19208028 2.92338918 C316.23724854 2.91839972 308.28241694 2.91321352 300.3275854 2.90792394 C299.53597257 2.9074009 298.74435973 2.90687786 297.92875864 2.90633898 C272.25772971 2.88928531 246.58673595 2.85923391 220.91572833 2.82246162 C194.54142078 2.78475039 168.16713269 2.76011318 141.79279863 2.75199054 C138.06993461 2.75083787 134.34707066 2.74953533 130.62420672 2.74814153 C129.89147408 2.74787184 129.15874144 2.74760214 128.40380478 2.74732428 C116.59588328 2.7425924 104.78802187 2.72402671 92.98012489 2.70032236 C81.11702722 2.67680117 69.25399457 2.66809605 57.39087442 2.67364499 C50.95996452 2.67621588 44.52923137 2.67217821 38.09835261 2.6508286 C32.21673578 2.63144427 26.33541552 2.63032762 20.45378538 2.64405492 C18.32046098 2.64575293 16.1871185 2.64061034 14.05383001 2.62811777 C11.16411983 2.61217283 8.27549433 2.62065027 5.38580245 2.63545918 C4.54863443 2.62495113 3.71146642 2.61444308 2.84892967 2.6036166 C-2.19049706 2.66237582 -4.85849062 3.3203971 -8.50664312 7.1276505 Z M529.49335688 3.1276505 C529.49335688 26.8876505 529.49335688 50.6476505 529.49335688 75.1276505 C552.65446245 75.24417142 552.65446245 75.24417142 575.81562251 75.322963 C585.25947707 75.34670605 594.70318897 75.37463175 604.14692134 75.42940831 C611.02448107 75.46928126 617.90192518 75.4950845 624.77959728 75.50400448 C628.42122403 75.50921852 632.06251999 75.5214695 635.70404071 75.55057073 C639.76962275 75.5827972 643.83462996 75.58360963 647.90033931 75.58175206 C649.10730967 75.59613317 650.31428004 75.61051427 651.55782527 75.62533116 C657.92643312 75.64196787 657.92643312 75.64196787 663.71792048 73.28676915 C666.60119834 69.78039798 666.62830234 66.83533784 666.67035884 62.45040441 C666.68319407 61.28554509 666.69602931 60.12068578 666.70925349 58.9205277 C666.71664042 57.66114385 666.72402735 56.40176 666.73163813 55.104213 C666.74374575 53.16401784 666.74374575 53.16401784 666.75609797 51.18462682 C666.77110901 48.44590949 666.78095514 45.70721796 666.7885229 42.96847081 C666.79959081 39.46562925 666.83400124 35.96342234 666.8736946 32.46080518 C666.9061668 29.11279993 666.91063936 25.76486357 666.91913813 22.416713 C666.94540026 20.53370992 666.94540026 20.53370992 666.97219294 18.61266637 C666.96926738 17.44150273 666.96634181 16.2703391 666.96332759 15.06368566 C666.96919383 14.03570867 666.97506007 13.00773168 666.98110408 11.94860387 C666.36105201 8.36244698 665.02504724 6.69848821 662.49335688 4.1276505 C659.44015306 3.10991589 657.39234975 3.00431492 654.1972906 3.00739598 C652.55034457 3.00533399 652.55034457 3.00533399 650.8701269 3.00323033 C649.06291163 3.00862325 649.06291163 3.00862325 647.21918696 3.01412511 C645.31658358 3.01390607 645.31658358 3.01390607 643.37554377 3.0136826 C639.8964794 3.01339539 636.41744943 3.01927993 632.93839306 3.02625656 C629.30288207 3.03250265 625.66737033 3.03309489 622.03185481 3.03428197 C615.14708306 3.03739157 608.26232717 3.04559998 601.3775624 3.05563146 C592.07446444 3.0688927 582.77136216 3.0742955 573.46825713 3.08013368 C558.80994517 3.0895401 544.15166667 3.1094615 529.49335688 3.1276505 Z " fill="#EE4343" transform="translate(617.5066431164742,364.8723495006561)"/>
<path d="M0 0 C1.04729279 -0.00571014 2.09458557 -0.01142029 3.1736145 -0.01730347 C4.32741104 -0.01842133 5.48120758 -0.01953918 6.66996765 -0.02069092 C7.88142456 -0.02565582 9.09288147 -0.03062073 10.34104919 -0.03573608 C13.66968884 -0.04785806 16.99826554 -0.05530649 20.32691979 -0.05974674 C22.40643794 -0.06267677 24.48595056 -0.06678147 26.56546593 -0.07125092 C33.071479 -0.08492848 39.57747947 -0.0945935 46.08350593 -0.09845281 C53.59415243 -0.10293243 61.10461684 -0.12047464 68.61520797 -0.1494534 C74.41995311 -0.17107284 80.22464703 -0.18115725 86.029432 -0.18249393 C89.49657352 -0.1835419 92.96354394 -0.18944773 96.43064308 -0.20731354 C100.29954013 -0.22686139 104.16820988 -0.22250418 108.03715515 -0.21600342 C109.184879 -0.2252182 110.33260284 -0.23443298 111.5151062 -0.243927 C112.57085846 -0.23835785 113.62661072 -0.2327887 114.71435547 -0.22705078 C115.62894185 -0.22851734 116.54352823 -0.2299839 117.48582935 -0.2314949 C121.73592731 0.38555292 124.36116498 2.44617026 127.32879639 5.44744873 C129.37446399 8.6524678 129.54876857 10.45062988 129.54936218 14.22833252 C129.55874313 15.43308228 129.56812408 16.63783203 129.57778931 17.87908936 C129.56093834 19.81830261 129.56093834 19.81830261 129.54374695 21.79669189 C129.54390205 23.14520343 129.5453929 24.49371541 129.54815674 25.84222412 C129.54953857 28.66334836 129.53701999 31.48396287 129.51420593 34.30499268 C129.48582107 37.91312593 129.48856107 41.52041281 129.50129604 45.1286087 C129.50826578 47.91169406 129.50044935 50.69458531 129.48803902 53.47764587 C129.48135473 55.45235087 129.48565876 57.42708321 129.49014282 59.40179443 C129.47745865 60.60654419 129.46477448 61.81129395 129.45170593 63.05255127 C129.44630295 64.11002563 129.44089996 65.1675 129.43533325 66.25701904 C128.82610122 70.78826474 126.54007184 74.23009303 123.0476532 77.14044189 C120.07441132 78.13152252 118.09307389 78.27762795 114.98851013 78.30107117 C113.942733 78.31111679 112.89695587 78.32116241 111.81948853 78.33151245 C110.67242935 78.33734344 109.52537018 78.34317444 108.34355164 78.34918213 C107.13516129 78.35896591 105.92677094 78.36874969 104.6817627 78.37882996 C100.67352768 78.40880175 96.66532825 78.4304785 92.6570282 78.44903564 C91.97452279 78.45233297 91.29201738 78.45563029 90.58882999 78.45902753 C84.14924425 78.48980723 77.70965374 78.51650766 71.27001572 78.53344631 C63.04118838 78.55534721 54.81301396 78.59731147 46.58444762 78.66688389 C40.79409582 78.71417402 35.00391988 78.73838645 29.21338105 78.7456432 C25.7571244 78.75059207 22.3016041 78.76559725 18.84555817 78.8053875 C14.98662395 78.84923155 11.12852473 78.84534577 7.26933289 78.83746338 C6.13037064 78.85746399 4.99140839 78.8774646 3.81793213 78.89807129 C-2.47587774 78.84035742 -6.17744614 78.19283341 -10.75310898 73.72140598 C-13.22317915 70.46509422 -13.10202217 67.23948162 -13.16108704 63.31134033 C-13.18037766 62.1128949 -13.19966827 60.91444946 -13.21954346 59.6796875 C-13.27728002 54.19869339 -13.32685983 48.71784782 -13.3573761 43.2366333 C-13.37517059 40.34588083 -13.40996134 37.45610738 -13.45991516 34.56573486 C-13.52029723 31.06730998 -13.55087533 27.56979056 -13.56054878 24.07086945 C-13.57320287 22.09934799 -13.61521011 20.12808494 -13.65777588 18.15698242 C-13.63483578 8.14377454 -13.63483578 8.14377454 -10.03852844 3.83282471 C-6.73311566 0.62508883 -4.58070433 0.01491704 0 0 Z M-8.9523468 7.14044189 C-10.26859678 9.77294185 -10.09390976 11.75605677 -10.11347961 14.7041626 C-10.12308716 15.86909744 -10.1326947 17.03403229 -10.14259338 18.23426819 C-10.14684326 19.49881332 -10.15109314 20.76335846 -10.1554718 22.06622314 C-10.16117188 23.36110153 -10.16687195 24.65597992 -10.17274475 25.99009705 C-10.18325478 28.73479607 -10.18909708 31.47946581 -10.19258118 34.22418213 C-10.19805888 37.73478347 -10.2220708 41.24499558 -10.25055313 44.75547504 C-10.27370434 48.10905024 -10.27563115 51.46257218 -10.2804718 54.81622314 C-10.2928186 56.07469559 -10.30516541 57.33316803 -10.31788635 58.629776 C-10.31488525 59.80416733 -10.31188416 60.97855865 -10.30879211 62.1885376 C-10.31243774 63.21953079 -10.31608337 64.25052399 -10.31983948 65.3127594 C-9.88934834 68.62518527 -8.92866405 70.46653167 -6.9523468 73.14044189 C-3.68022676 75.32185526 -2.74540741 75.39247272 1.04432678 75.40113831 C2.07616592 75.40822311 3.10800507 75.41530792 4.17111206 75.42260742 C5.86836174 75.4188913 5.86836174 75.4188913 7.59989929 75.4151001 C8.79199509 75.42021103 9.98409088 75.42532196 11.21231079 75.43058777 C14.483073 75.44211827 17.75367832 75.44455528 21.02445555 75.44202447 C23.75552 75.44095517 26.48656105 75.4458372 29.21762049 75.45062989 C35.66195907 75.46172893 42.10623937 75.46216061 48.55058289 75.45611572 C55.19609623 75.45007788 61.84139774 75.46238106 68.48687494 75.48368579 C74.19398643 75.50130868 79.90103055 75.50730198 85.60816824 75.50404805 C89.01603745 75.50223575 92.42375564 75.50486565 95.83160019 75.51876259 C99.63343948 75.53107637 103.43478683 75.52436492 107.23661804 75.51275635 C108.36406937 75.52040009 109.49152069 75.52804382 110.65313721 75.53591919 C111.690616 75.52890488 112.72809479 75.52189056 113.79701233 75.5146637 C114.6955512 75.51483144 115.59409008 75.51499918 116.51985741 75.515172 C119.61551749 75.05625952 121.50636558 73.93490837 124.0476532 72.14044189 C126.28686829 68.98218932 126.30984886 66.15579081 126.33818054 62.34967041 C126.35094025 61.18488663 126.36369995 60.02010284 126.37684631 58.82002258 C126.37907196 57.56580002 126.38129761 56.31157745 126.3835907 55.01934814 C126.3902475 53.72729965 126.3969043 52.43525116 126.40376282 51.10404968 C126.41572306 48.37127338 126.41944488 45.63862338 126.41825867 42.90582275 C126.41805539 39.41080835 126.44537093 35.91660628 126.47980309 32.4217844 C126.5074375 29.0792935 126.50622156 25.7369518 126.5085907 22.39434814 C126.53014725 20.51605064 126.53014725 20.51605064 126.55213928 18.59980774 C126.54290939 16.84790382 126.54290939 16.84790382 126.53349304 15.06060791 C126.53634308 14.03564713 126.53919312 13.01068634 126.54212952 11.95466614 C125.91351304 8.377007 124.57359379 6.70778169 122.0476532 4.14044189 C119.08636969 3.15334739 117.14044258 3.00797681 114.05097961 2.99327087 C113.01914047 2.98611557 111.98730133 2.97896027 110.92419434 2.97158813 C109.79269455 2.96889923 108.66119476 2.96621033 107.4954071 2.96343994 C106.30331131 2.95686874 105.11121552 2.95029755 103.88299561 2.94352722 C99.93007549 2.92378286 95.97716863 2.9121289 92.0242157 2.90216064 C90.66258601 2.89811241 89.30095652 2.89399546 87.93932724 2.88981056 C81.54331194 2.87076653 75.14730813 2.85653259 68.75126994 2.84819859 C61.37018874 2.83842187 53.98940709 2.8120881 46.60843146 2.7716977 C40.9013311 2.74153934 35.19431665 2.7267301 29.48713815 2.72341758 C26.07919223 2.72106718 22.6715666 2.71210842 19.26370621 2.68695641 C15.4617886 2.66269883 11.66065909 2.66350579 7.85868835 2.67047119 C6.73123703 2.65766113 5.60378571 2.64485107 4.44216919 2.63165283 C-3.1046865 2.63110544 -3.1046865 2.63110544 -8.9523468 7.14044189 Z " fill="#EC4343" transform="translate(887.9523468017578,526.8595581054688)"/>
<path d="M0 0 C17 0 17 0 23 3 C25.820631 5.86833723 26.43135748 7.95100643 26.4375 11.9375 C26.33510797 15.58588983 26.06018512 16.89969146 24.125 20.125 C22 22 22 22 20 22 C22.31 27.61 24.62 33.22 27 39 C24.03 39 21.06 39 18 39 C17.61328125 38.00097656 17.2265625 37.00195312 16.828125 35.97265625 C16.30288917 34.66894589 15.7768031 33.36557785 15.25 32.0625 C14.99734375 31.40314453 14.7446875 30.74378906 14.484375 30.06445312 C13.63878465 27.90860507 13.63878465 27.90860507 12 25 C10.68 24.67 9.36 24.34 8 24 C8 28.95 8 33.9 8 39 C5.36 39 2.72 39 0 39 C0 26.13 0 13.26 0 0 Z " fill="#F1F1F1" transform="translate(982,286)"/>
<path d="M0 0 C3.3 0 6.6 0 10 0 C12.64 7.59 15.28 15.18 18 23 C18.33 15.41 18.66 7.82 19 0 C21.31 0 23.62 0 26 0 C26 12.87 26 25.74 26 39 C22.7 39 19.4 39 16 39 C13.36 31.08 10.72 23.16 8 15 C7.67 22.92 7.34 30.84 7 39 C4.69 39 2.38 39 0 39 C0 26.13 0 13.26 0 0 Z " fill="#F0F0F0" transform="translate(852,286)"/>
<path d="M0 0 C4.32577068 1.71228423 5.92622694 3.91038049 8 8 C8.8639745 14.29346131 8.90575016 20.74743944 5 26 C1.08032736 29.6746931 -3.28885798 29.44047123 -8.40234375 29.2890625 C-11.64549341 28.92817066 -13.57049259 28.19439379 -16 26 C-18.50428849 22.30617448 -18.40211573 18.37544884 -18.4375 14.0625 C-18.47037109 13.35931641 -18.50324219 12.65613281 -18.53710938 11.93164062 C-18.57859839 7.90720658 -18.1719006 6.21047341 -15.59765625 3.05859375 C-10.66693681 -0.84890873 -6.12592514 -0.48759173 0 0 Z " fill="#EDEDED" transform="translate(935,296)"/>
<path d="M0 0 C2.64 0 5.28 0 8 0 C8.02505615 0.90355225 8.0501123 1.80710449 8.07592773 2.73803711 C8.17087317 6.0796428 8.27011621 9.42106252 8.37231445 12.76245117 C8.4157163 14.2106424 8.45738744 15.65888654 8.49731445 17.10717773 C8.55489062 19.18489559 8.61862028 21.26234573 8.68359375 23.33984375 C8.72025146 24.59144287 8.75690918 25.84304199 8.79467773 27.13256836 C8.67803906 29.89630504 8.67803906 29.89630504 10 31 C13 31.16666667 13 31.16666667 16 31 C17.88631543 29.11368457 17.24265292 25.85799307 17.31640625 23.33984375 C17.33718735 22.67537735 17.35796844 22.01091095 17.37937927 21.3263092 C17.44493658 19.19681457 17.50378785 17.06719332 17.5625 14.9375 C17.60567939 13.49673153 17.64929349 12.05597601 17.69335938 10.61523438 C17.80062393 7.0769596 17.90187371 3.53854131 18 0 C20.64 0 23.28 0 26 0 C26.0744013 4.32328804 26.12871968 8.64623255 26.16479492 12.9699707 C26.17984066 14.43943782 26.20028238 15.90886034 26.22631836 17.37817383 C26.26288955 19.4957177 26.27976801 21.61266565 26.29296875 23.73046875 C26.3086792 25.00301514 26.32438965 26.27556152 26.34057617 27.58666992 C25.89092081 32.09321592 24.37554328 34.64812198 21.18359375 37.78515625 C16.83438664 40.20484035 11.81135843 39.59236971 7 39 C2.77379255 36.71784798 1.43411732 34.48034523 0 30 C-0.22705078 26.6784668 -0.22705078 26.6784668 -0.1953125 22.94921875 C-0.1924826 22.29041214 -0.18965271 21.63160553 -0.18673706 20.95283508 C-0.17560924 18.86419938 -0.15051948 16.77600444 -0.125 14.6875 C-0.11496059 13.26498018 -0.10583642 11.8424536 -0.09765625 10.41992188 C-0.07569447 6.94647319 -0.04121646 3.47327967 0 0 Z " fill="#F0F0F0" transform="translate(949,286)"/>
<path d="M0 0 C5.50005789 0.03273844 8.27295866 0.60048904 12.3125 4.3125 C14.13339479 7.95428957 13.36371113 12.31803148 13.3125 16.3125 C7.3725 16.3125 1.4325 16.3125 -4.6875 16.3125 C-4.0275 18.2925 -3.3675 20.2725 -2.6875 22.3125 C1.45343698 22.52220559 1.45343698 22.52220559 5.3125 21.3125 C7.9848621 21.17834528 10.63500488 21.26931459 13.3125 21.3125 C12.39097758 24.41216633 11.73549941 25.99805796 9.10546875 27.953125 C4.33430534 30.27531362 -0.50086642 29.97966034 -5.6875 29.3125 C-8.76115786 27.50446596 -10.11769732 26.45210536 -11.6875 23.3125 C-11.89143196 20.52445878 -12.01120547 17.79088867 -12.0625 15 C-12.11857422 13.86014648 -12.11857422 13.86014648 -12.17578125 12.69726562 C-12.24383364 8.34569308 -12.10734433 6.82097813 -9.2265625 3.33203125 C-8.38867188 2.66558594 -7.55078125 1.99914062 -6.6875 1.3125 C-4.90677258 -0.46822742 -2.41106123 0.05634706 0 0 Z " fill="#EEEEEE" transform="translate(896.6875,295.6875)"/>
<path d="M0 0 C2.64 0 5.28 0 8 0 C8 10.56 8 21.12 8 32 C13.28 32 18.56 32 24 32 C24 34.31 24 36.62 24 39 C16.08 39 8.16 39 0 39 C0 26.13 0 13.26 0 0 Z " fill="#F4F4F4" transform="translate(1017,286)"/>
<path d="M0 0 C1.6328125 1.1484375 1.6328125 1.1484375 3 3 C3.3984375 5.8125 3.3984375 5.8125 3.375 9 C3.38273437 10.051875 3.39046875 11.10375 3.3984375 12.1875 C3 15 3 15 1.703125 16.88671875 C0 18 0 18 -3.625 17.8125 C-4.73875 17.544375 -5.8525 17.27625 -7 17 C-8.35281371 14.29437257 -8.20609362 12.08106345 -8.25 9.0625 C-8.27578125 8.00160156 -8.3015625 6.94070313 -8.328125 5.84765625 C-8 3 -8 3 -6.640625 1.14453125 C-4.2942434 -0.49234925 -2.79529242 -0.41929386 0 0 Z " fill="#646A77" transform="translate(1035,482)"/>
<path d="M0 0 C7 0 7 0 10 2 C9.814375 3.134375 9.62875 4.26875 9.4375 5.4375 C9.2209375 7.2009375 9.2209375 7.2009375 9 9 C9.33 9.33 9.66 9.66 10 10 C10.1875 12.9375 10.1875 12.9375 10 16 C9.34 16.66 8.68 17.32 8 18 C5.36 18 2.72 18 0 18 C0 12.06 0 6.12 0 0 Z " fill="#5F6571" transform="translate(1114,482)"/>
<path d="M0 0 C3 0.25 3 0.25 5 2.25 C5.265625 5.4375 5.265625 5.4375 5.25 9.25 C5.25515625 10.508125 5.2603125 11.76625 5.265625 13.0625 C5 16.25 5 16.25 3 18.25 C0 18.5625 0 18.5625 -3 18.25 C-5.38854824 14.66717765 -5.26898802 12.93606967 -5.25 8.6875 C-5.25515625 7.53121094 -5.2603125 6.37492187 -5.265625 5.18359375 C-4.89554867 1.09642722 -4.08360669 0.34030056 0 0 Z " fill="#676E7B" transform="translate(1061,481.75)"/>
<path d="M0 0 C3.0625 0.1875 3.0625 0.1875 5.0625 2.1875 C4.7355244 4.80330479 4.24210932 6.82828137 3.0625 9.1875 C3.7225 9.1875 4.3825 9.1875 5.0625 9.1875 C5.97241047 12.16538882 6.32210381 13.62247994 5 16.5 C3.0625 18.1875 3.0625 18.1875 0.0625 18.625 C-2.9375 18.1875 -2.9375 18.1875 -4.875 17.0625 C-6.46263015 14.26079973 -5.67820176 12.21764356 -4.9375 9.1875 C-4.2775 9.1875 -3.6175 9.1875 -2.9375 9.1875 C-3.5975 8.1975 -4.2575 7.2075 -4.9375 6.1875 C-4.23305896 0.27019525 -4.23305896 0.27019525 0 0 Z " fill="#636A77" transform="translate(1017.9375,481.8125)"/>
<path d="M0 0 C3.625 0.375 3.625 0.375 7 1 C7.70074844 4.153368 8 6.72724974 8 10 C8.061875 11.03125 8.12375 12.0625 8.1875 13.125 C8.125625 14.07375 8.06375 15.0225 8 16 C4.76746204 18.15502531 3.74849077 18.46856135 0 18 C-1.8125 16.8125 -1.8125 16.8125 -3 15 C-3.31241431 11.87585686 -3.00058075 10.00174224 -2 7 C-2.020625 6.154375 -2.04125 5.30875 -2.0625 4.4375 C-2 2 -2 2 0 0 Z " fill="#5A5F6B" transform="translate(1044,482)"/>
<path d="M0 0 C0.99 0 1.98 0 3 0 C3 5.94 3 11.88 3 18 C0.03 18 -2.94 18 -6 18 C-7.99825961 15.00261059 -8.27550398 14.36652492 -8.25 11 C-8.25515625 10.319375 -8.2603125 9.63875 -8.265625 8.9375 C-8 7 -8 7 -6 4 C-3.03 4.495 -3.03 4.495 0 5 C0 3.35 0 1.7 0 0 Z " fill="#DFE4D4" transform="translate(977,557)"/>
<path d="M0 0 C1.32 0.33 2.64 0.66 4 1 C4.86625 0.814375 5.7325 0.62875 6.625 0.4375 C7.40875 0.293125 8.1925 0.14875 9 0 C11 2 11 2 11.265625 4.3125 C11.26046875 5.199375 11.2553125 6.08625 11.25 7 C11.25515625 7.886875 11.2603125 8.77375 11.265625 9.6875 C11 12 11 12 9 14 C6.375 13.625 6.375 13.625 4 13 C3.67 14.65 3.34 16.3 3 18 C2.01 18 1.02 18 0 18 C0 12.06 0 6.12 0 0 Z " fill="#E1E5D6" transform="translate(926,561)"/>
<path d="M0 0 C8 0 8 0 10 1 C11.62421861 4.24843721 11.54739079 7.44935704 11 11 C9.75 13 9.75 13 8 14 C6.68 14 5.36 14 4 14 C3.67 15.32 3.34 16.64 3 18 C2.01 18 1.02 18 0 18 C0 12.06 0 6.12 0 0 Z " fill="#5C626D" transform="translate(811,486)"/>
<path d="M0 0 C3.5625 0.1875 3.5625 0.1875 5.5625 2.1875 C5.828125 4.71875 5.828125 4.71875 5.8125 7.6875 C5.81765625 8.6671875 5.8228125 9.646875 5.828125 10.65625 C5.5625 13.1875 5.5625 13.1875 3.5625 15.1875 C-0.0625 15.3125 -0.0625 15.3125 -3.4375 15.1875 C-4.81002731 12.44244537 -4.56979255 10.18422588 -4.5625 7.125 C-4.56507813 6.04089844 -4.56765625 4.95679688 -4.5703125 3.83984375 C-4.37045751 -0.15137804 -4.11509141 0.22445953 0 0 Z " fill="#2B2B2B" transform="translate(929.4375,302.8125)"/>
<path d="M0 0 C3.0625 0.3125 3.0625 0.3125 4.9375 1.3125 C6.74773932 4.53070324 6.60217465 7.71466898 6.0625 11.3125 C4.9375 13.3125 4.9375 13.3125 3.0625 14.3125 C0 14.625 0 14.625 -2.9375 14.3125 C-4.9375 12.3125 -4.9375 12.3125 -5.203125 10 C-5.19796875 9.113125 -5.1928125 8.22625 -5.1875 7.3125 C-5.19265625 6.425625 -5.1978125 5.53875 -5.203125 4.625 C-4.78088977 0.94906979 -3.57729598 0.3805634 0 0 Z " fill="#E0E4D5" transform="translate(916.9375,560.6875)"/>
<path d="M0 0 C1.66684015 1.66684015 1.21072764 3.65643069 1.25 5.9375 C1.28867188 7.28134766 1.28867188 7.28134766 1.328125 8.65234375 C1.21984375 9.42707031 1.1115625 10.20179688 1 11 C-2.23253796 13.15502531 -3.25150923 13.46856135 -7 13 C-8.8125 12 -8.8125 12 -10 10 C-10.54833739 6.39449388 -10.62641341 3.21597897 -8.9375 -0.0625 C-5.82886019 -1.56668055 -3.27444462 -0.72765436 0 0 Z " fill="#FBDFDF" transform="translate(1205,400)"/>
<path d="M0 0 C1.8125 1 1.8125 1 3 3 C3.55003751 6.616685 3.71020228 9.80386985 1.8125 13 C-0.66525842 14.36703913 -2.21155919 14.41826612 -5 14 C-6.8125 13 -6.8125 13 -8 11 C-8.55003751 7.383315 -8.71020228 4.19613015 -6.8125 1 C-4.33474158 -0.36703913 -2.78844081 -0.41826612 0 0 Z " fill="#5C626D" transform="translate(963,486)"/>
<path d="M0 0 C1.8125 1 1.8125 1 3 3 C3.55003751 6.616685 3.71020228 9.80386985 1.8125 13 C-0.66525842 14.36703913 -2.21155919 14.41826612 -5 14 C-6.8125 13 -6.8125 13 -8 11 C-8.55003751 7.383315 -8.71020228 4.19613015 -6.8125 1 C-4.33474158 -0.36703913 -2.78844081 -0.41826612 0 0 Z " fill="#5C626D" transform="translate(891,486)"/>
<path d="M0 0 C1.8125 1 1.8125 1 3 3 C3.55003751 6.616685 3.71020228 9.80386985 1.8125 13 C-0.66525842 14.36703913 -2.21155919 14.41826612 -5 14 C-6.8125 13 -6.8125 13 -8 11 C-8.55003751 7.383315 -8.71020228 4.19613015 -6.8125 1 C-4.33474158 -0.36703913 -2.78844081 -0.41826612 0 0 Z " fill="#DDDDDD" transform="translate(953,399)"/>
<path d="M0 0 C6.57692308 0.57692308 6.57692308 0.57692308 8 2 C8.203125 3.9609375 8.203125 3.9609375 8.25 6.375 C8.28867187 7.56222656 8.28867187 7.56222656 8.328125 8.7734375 C7.92459365 11.51168597 7.19200967 12.35989775 5 14 C2.4375 14.3125 2.4375 14.3125 0 14 C-2 12 -2 12 -2.265625 9.6875 C-2.26046875 8.800625 -2.2553125 7.91375 -2.25 7 C-2.25515625 6.113125 -2.2603125 5.22625 -2.265625 4.3125 C-2 2 -2 2 0 0 Z " fill="#E1E1E1" transform="translate(1005,399)"/>
<path d="M0 0 C1.8125 1.1875 1.8125 1.1875 3 3 C3.1875 5.6875 3.1875 5.6875 3 8 C0.36 8 -2.28 8 -5 8 C-5 8.99 -5 9.98 -5 11 C-2.36 10.67 0.28 10.34 3 10 C2.67 10.99 2.34 11.98 2 13 C-4.34507042 14.31690141 -4.34507042 14.31690141 -6.9375 13.0625 C-8.62641341 9.78402103 -8.54833739 6.60550612 -8 3 C-5.99552859 -0.37595184 -3.7543224 -0.56314836 0 0 Z " fill="#F8EFEC" transform="translate(963,561)"/>
<path d="M0 0 C3.625 0.375 3.625 0.375 7 1 C7.33 2.32 7.66 3.64 8 5 C7.01 5 6.02 5 5 5 C5 4.34 5 3.68 5 3 C3.68 3 2.36 3 1 3 C1 4.32 1 5.64 1 7 C2.423125 7.1546875 2.423125 7.1546875 3.875 7.3125 C7 8 7 8 9 11 C8.6758631 14.32240324 8.39223697 15.60776303 6 18 C0.76013514 18.55743243 0.76013514 18.55743243 -1.875 16.625 C-3 15 -3 15 -3 13 C-0.36 13.33 2.28 13.66 5 14 C5.33 13.01 5.66 12.02 6 11 C4.865625 10.690625 3.73125 10.38125 2.5625 10.0625 C-1 9 -1 9 -2 8 C-2.1875 5.0625 -2.1875 5.0625 -2 2 C-1.34 1.34 -0.68 0.68 0 0 Z " fill="#FAD9D9" transform="translate(1169,395)"/>
<path d="M0 0 C0.66 0 1.32 0 2 0 C2 1.98 2 3.96 2 6 C2.66 6 3.32 6 4 6 C4.33 4.02 4.66 2.04 5 0 C5.99 0.33 6.98 0.66 8 1 C8.33 2.98 8.66 4.96 9 7 C9.33 4.69 9.66 2.38 10 0 C10.66 0 11.32 0 12 0 C11.67 4.29 11.34 8.58 11 13 C9.68 13.33 8.36 13.66 7 14 C7 11.36 7 8.72 7 6 C6.34 6 5.68 6 5 6 C5 8.31 5 10.62 5 13 C3.68 13.33 2.36 13.66 1 14 C-0.20568053 9.32798795 -0.09382426 4.78503708 0 0 Z " fill="#BCBCBC" transform="translate(959,399)"/>
<path d="M0 0 C0.66 0 1.32 0 2 0 C2 1.98 2 3.96 2 6 C2.66 6 3.32 6 4 6 C4.33 4.02 4.66 2.04 5 0 C5.99 0.33 6.98 0.66 8 1 C8.33 2.98 8.66 4.96 9 7 C9.33 4.69 9.66 2.38 10 0 C10.66 0 11.32 0 12 0 C11.67 4.29 11.34 8.58 11 13 C9.68 13.33 8.36 13.66 7 14 C7 11.36 7 8.72 7 6 C6.34 6 5.68 6 5 6 C5 8.31 5 10.62 5 13 C3.68 13.33 2.36 13.66 1 14 C-0.20568053 9.32798795 -0.09382426 4.78503708 0 0 Z " fill="#BCBCBC" transform="translate(743,399)"/>
<path d="M0 0 C0.99 0 1.98 0 3 0 C3.33 1.65 3.66 3.3 4 5 C4.78375 4.79375 5.5675 4.5875 6.375 4.375 C7.674375 4.189375 7.674375 4.189375 9 4 C11 6 11 6 11.1953125 8.8203125 C11.16050781 10.45613281 11.16050781 10.45613281 11.125 12.125 C11.10695313 13.22070312 11.08890625 14.31640625 11.0703125 15.4453125 C11.03550781 16.70988281 11.03550781 16.70988281 11 18 C10.01 18 9.02 18 8 18 C7.67 14.7 7.34 11.4 7 8 C6.01 8 5.02 8 4 8 C3.67 11.3 3.34 14.6 3 18 C2.01 18 1.02 18 0 18 C0 12.06 0 6.12 0 0 Z " fill="#FDEBEB" transform="translate(1181,395)"/>
<path d="M0 0 C2.875 -0.125 2.875 -0.125 6 0 C8 2 8 2 8.1953125 4.8203125 C8.16050781 6.45613281 8.16050781 6.45613281 8.125 8.125 C8.10695313 9.22070312 8.08890625 10.31640625 8.0703125 11.4453125 C8.04710937 12.28835938 8.02390625 13.13140625 8 14 C4.71547 14 2.15301686 13.76695005 -1 13 C-2 12 -2 12 -2.1875 9.5625 C-2 7 -2 7 0 5 C3.125 4.875 3.125 4.875 6 5 C5.67 4.34 5.34 3.68 5 3 C3.02 3 1.04 3 -1 3 C-0.67 2.01 -0.34 1.02 0 0 Z " fill="#626874" transform="translate(914,486)"/>
<path d="M0 0 C7.71484375 -0.09765625 7.71484375 -0.09765625 10 0 C11 1 11 1 11.09765625 3.94140625 C11.08605469 5.13636719 11.07445312 6.33132813 11.0625 7.5625 C11.05347656 8.76003906 11.04445313 9.95757812 11.03515625 11.19140625 C11.02355469 12.11824219 11.01195312 13.04507812 11 14 C10.34 14 9.68 14 9 14 C9 10.04 9 6.08 9 2 C8.34 2 7.68 2 7 2 C7 5.96 7 9.92 7 14 C6.01 14 5.02 14 4 14 C4 10.04 4 6.08 4 2 C3.34 2 2.68 2 2 2 C2 5.96 2 9.92 2 14 C1.34 14 0.68 14 0 14 C0 9.38 0 4.76 0 0 Z " fill="#C0C0C0" transform="translate(1017,399)"/>
<path d="M0 0 C0.66 0 1.32 0 2 0 C2.33 1.32 2.66 2.64 3 4 C3.66 2.68 4.32 1.36 5 0 C5.99 0 6.98 0 8 0 C8.33 2.31 8.66 4.62 9 7 C9.66 4.69 10.32 2.38 11 0 C11.33 0 11.66 0 12 0 C12.08333357 4.8333472 11.95261487 9.23692563 11 14 C10.01 14 9.02 14 8 14 C7.34 12.02 6.68 10.04 6 8 C5.67 9.98 5.34 11.96 5 14 C4.01 14 3.02 14 2 14 C-0.29612756 4.58997722 -0.29612756 4.58997722 0 0 Z " fill="#BEBEBE" transform="translate(757,399)"/>
<path d="M0 0 C2 2 2 2 3 5 C3.33 3.35 3.66 1.7 4 0 C4.99 0 5.98 0 7 0 C7.66 1.32 8.32 2.64 9 4 C9.33 2.68 9.66 1.36 10 0 C10.66 0 11.32 0 12 0 C11.67 4.29 11.34 8.58 11 13 C9.68 13.33 8.36 13.66 7 14 C6.67 12.35 6.34 10.7 6 9 C5.34 10.65 4.68 12.3 4 14 C3.01 14 2.02 14 1 14 C0.04738513 9.23692563 -0.08333357 4.8333472 0 0 Z " fill="#C9C9C9" transform="translate(772,399)"/>
<path d="M0 0 C2 2 2 2 2.125 5.125 C2.08375 6.07375 2.0425 7.0225 2 8 C-0.64 8 -3.28 8 -6 8 C-5.67 8.99 -5.34 9.98 -5 11 C-1.535 10.505 -1.535 10.505 2 10 C1.34 11.32 0.68 12.64 0 14 C-2.3431213 13.74438677 -4.67843403 13.40729228 -7 13 C-8.59211531 9.81576939 -8.38981631 6.46582137 -8 3 C-5.98696203 -0.39037973 -3.76448625 -0.48262644 0 0 Z " fill="#DFDFDF" transform="translate(910,399)"/>
<path d="M0 0 C0.33 1.32 0.66 2.64 1 4 C0.01 4 -0.98 4 -2 4 C-2 3.34 -2 2.68 -2 2 C-3.32 2.33 -4.64 2.66 -6 3 C-6 6.3 -6 9.6 -6 13 C-4.68 13.33 -3.36 13.66 -2 14 C-2 13.34 -2 12.68 -2 12 C-1.01 12 -0.02 12 1 12 C0.67 13.32 0.34 14.64 0 16 C-6.4704635 17.34292639 -6.4704635 17.34292639 -8.70703125 15.89453125 C-10.53152812 13.22117481 -10.39860189 11.20985705 -10.375 8 C-10.38273438 6.948125 -10.39046875 5.89625 -10.3984375 4.8125 C-10 2 -10 2 -8.70703125 0.10546875 C-5.84707476 -1.74663122 -3.1826808 -0.66055639 0 0 Z " fill="#E5E7DA" transform="translate(907,558)"/>
<path d="M0 0 C1.32 0.33 2.64 0.66 4 1 C4.86625 0.814375 5.7325 0.62875 6.625 0.4375 C7.40875 0.293125 8.1925 0.14875 9 0 C11 2 11 2 11.1953125 4.8203125 C11.16050781 6.45613281 11.16050781 6.45613281 11.125 8.125 C11.10695313 9.22070312 11.08890625 10.31640625 11.0703125 11.4453125 C11.04710937 12.28835938 11.02390625 13.13140625 11 14 C10.01 14 9.02 14 8 14 C7.67 10.7 7.34 7.4 7 4 C6.01 4 5.02 4 4 4 C3.67 7.3 3.34 10.6 3 14 C2.01 14 1.02 14 0 14 C0 9.38 0 4.76 0 0 Z " fill="#FBDFDF" transform="translate(1253,399)"/>
<path d="M0 0 C2.5625 0.3125 2.5625 0.3125 4.375 1.5 C5.92928206 3.87232525 5.78787188 5.53291345 5.5625 8.3125 C2.9225 8.3125 0.2825 8.3125 -2.4375 8.3125 C-2.1075 9.3025 -1.7775 10.2925 -1.4375 11.3125 C0.5425 11.3125 2.5225 11.3125 4.5625 11.3125 C4.5625 11.9725 4.5625 12.6325 4.5625 13.3125 C1.1875 13.9375 1.1875 13.9375 -2.4375 14.3125 C-4.4375 12.3125 -4.4375 12.3125 -4.703125 10 C-4.69796875 9.113125 -4.6928125 8.22625 -4.6875 7.3125 C-4.69265625 6.425625 -4.6978125 5.53875 -4.703125 4.625 C-4.31923239 1.28287612 -3.30723298 0.42400423 0 0 Z " fill="#E0E0E0" transform="translate(849.4375,398.6875)"/>
<path d="M0 0 C0.99 0 1.98 0 3 0 C3 1.32 3 2.64 3 4 C4.65 4 6.3 4 8 4 C8 4.99 8 5.98 8 7 C6.35 7 4.7 7 3 7 C3 9.64 3 12.28 3 15 C4.65 15 6.3 15 8 15 C8 15.99 8 16.98 8 18 C5.125 18.125 5.125 18.125 2 18 C0 16 0 16 -0.1953125 13.8359375 C-0.17210937 13.02382813 -0.14890625 12.21171875 -0.125 11.375 C-0.10695313 10.55773437 -0.08890625 9.74046875 -0.0703125 8.8984375 C-0.03550781 7.95871094 -0.03550781 7.95871094 0 7 C-1.32 7 -2.64 7 -4 7 C-4 6.01 -4 5.02 -4 4 C-2.68 4 -1.36 4 0 4 C0 2.68 0 1.36 0 0 Z " fill="#FBE2E2" transform="translate(1227,395)"/>
<path d="M0 0 C6.625 -0.25 6.625 -0.25 10 2 C10.3125 5 10.3125 5 10 8 C8 10 8 10 6.0546875 10.1953125 C4.03645833 10.13020833 2.01822917 10.06510417 0 10 C0 6.7 0 3.4 0 0 Z " fill="#252525" transform="translate(990,293)"/>
<path d="M0 0 C3.53571429 0.53571429 3.53571429 0.53571429 5 2 C5.1245486 3.64230364 5.17568524 5.29052276 5.1875 6.9375 C5.20167969 7.83339844 5.21585938 8.72929687 5.23046875 9.65234375 C5 12 5 12 3 14 C-0.53571429 13.46428571 -0.53571429 13.46428571 -2 12 C-2.1245486 10.35769636 -2.17568524 8.70947724 -2.1875 7.0625 C-2.20167969 6.16660156 -2.21585938 5.27070313 -2.23046875 4.34765625 C-2 2 -2 2 0 0 Z " fill="#323337" transform="translate(1031,484)"/>
<path d="M0 0 C2.64 0 5.28 0 8 0 C10 2 10 2 10.265625 4.3125 C10.26046875 5.199375 10.2553125 6.08625 10.25 7 C10.25515625 7.886875 10.2603125 8.77375 10.265625 9.6875 C10 12 10 12 8 14 C5.375 13.625 5.375 13.625 3 13 C4.32 12.34 5.64 11.68 7 11 C7 8.36 7 5.72 7 3 C5.68 3.33 4.36 3.66 3 4 C2.67 8.62 2.34 13.24 2 18 C1.34 18 0.68 18 0 18 C0 12.06 0 6.12 0 0 Z " fill="#E8E8E8" transform="translate(672,399)"/>
<path d="M0 0 C1.65 0.33 3.3 0.66 5 1 C5 4.96 5 8.92 5 13 C3.35 13.33 1.7 13.66 0 14 C-1 13 -1 13 -1.1328125 10.3125 C-1.13023438 9.219375 -1.12765625 8.12625 -1.125 7 C-1.12757812 5.906875 -1.13015625 4.81375 -1.1328125 3.6875 C-1 1 -1 1 0 0 Z " fill="#2C2E30" transform="translate(1059,484)"/>
<path d="M0 0 C3 0.1875 3 0.1875 5 1.1875 C5 1.8475 5 2.5075 5 3.1875 C2.69 2.8575 0.38 2.5275 -2 2.1875 C-2 3.1775 -2 4.1675 -2 5.1875 C0.31 5.8475 2.62 6.5075 5 7.1875 C5.625 9.5625 5.625 9.5625 6 12.1875 C4 14.1875 4 14.1875 0.375 14.3125 C-0.73875 14.27125 -1.8525 14.23 -3 14.1875 C-3.66 12.8675 -4.32 11.5475 -5 10.1875 C-4.01 10.1875 -3.02 10.1875 -2 10.1875 C-2 10.8475 -2 11.5075 -2 12.1875 C-0.35 12.1875 1.3 12.1875 3 12.1875 C3 10.8675 3 9.5475 3 8.1875 C0.69 7.8575 -1.62 7.5275 -4 7.1875 C-4.625 4.8125 -4.625 4.8125 -5 2.1875 C-3 0.1875 -3 0.1875 0 0 Z " fill="#CACACA" transform="translate(806,398.8125)"/>
<path d="M0 0 C2.31 0 4.62 0 7 0 C7 3.63 7 7.26 7 11 C8.32 11 9.64 11 11 11 C11 11.99 11 12.98 11 14 C7.37 14 3.74 14 0 14 C0 13.01 0 12.02 0 11 C1.32 11 2.64 11 4 11 C4 8.36 4 5.72 4 3 C2.68 3 1.36 3 0 3 C0 2.01 0 1.02 0 0 Z " fill="#F4EDE8" transform="translate(941,561)"/>
<path d="M0 0 C0.78375 0.04125 1.5675 0.0825 2.375 0.125 C1.715 0.558125 1.055 0.99125 0.375 1.4375 C-0.285 1.994375 -0.945 2.55125 -1.625 3.125 C-1.625 4.115 -1.625 5.105 -1.625 6.125 C-0.305 6.455 1.015 6.785 2.375 7.125 C2.375 7.785 2.375 8.445 2.375 9.125 C0.725 9.785 -0.925 10.445 -2.625 11.125 C-2.295 12.445 -1.965 13.765 -1.625 15.125 C-0.305 15.125 1.015 15.125 2.375 15.125 C2.705 13.145 3.035 11.165 3.375 9.125 C4.035 9.455 4.695 9.785 5.375 10.125 C5.5625 13 5.5625 13 5.375 16.125 C2.14246204 18.28002531 1.12349077 18.59356135 -2.625 18.125 C-4.4375 16.9375 -4.4375 16.9375 -5.625 15.125 C-5.93741431 12.00085686 -5.62558075 10.12674224 -4.625 7.125 C-4.645625 6.279375 -4.66625 5.43375 -4.6875 4.5625 C-4.59519974 0.96278983 -3.5401988 0.1685809 0 0 Z " fill="#616874" transform="translate(1046.625,481.875)"/>
<path d="M0 0 C1.99954746 -0.04254356 4.00041636 -0.04080783 6 0 C7 1 7 1 7.0625 4.0625 C7.041875 5.031875 7.02125 6.00125 7 7 C4.36 7 1.72 7 -1 7 C-0.67 7.66 -0.34 8.32 0 9 C2.31 9 4.62 9 7 9 C6.34 10.32 5.68 11.64 5 13 C2.125 13.125 2.125 13.125 -1 13 C-3 11 -3 11 -3.1953125 9.0546875 C-3.13020833 7.03645833 -3.06510417 5.01822917 -3 3 C-2.34 2.67 -1.68 2.34 -1 2 C-1 2.99 -1 3.98 -1 5 C0.98 5 2.96 5 5 5 C3.16666667 1.83333333 3.16666667 1.83333333 0 0 Z " fill="#FDEDED" transform="translate(1242,400)"/>
<path d="M0 0 C0.66 0 1.32 0 2 0 C2.33 1.32 2.66 2.64 3 4 C4.175625 3.9071875 4.175625 3.9071875 5.375 3.8125 C6.674375 3.9053125 6.674375 3.9053125 8 4 C10.28062828 7.42094242 10.21925007 8.68187222 10.125 12.6875 C10.10695313 13.68136719 10.08890625 14.67523438 10.0703125 15.69921875 C10.03550781 16.83810547 10.03550781 16.83810547 10 18 C9.34 18 8.68 18 8 18 C7.67 14.7 7.34 11.4 7 8 C5.68 7.67 4.36 7.34 3 7 C2.67 10.63 2.34 14.26 2 18 C1.34 18 0.68 18 0 18 C0 12.06 0 6.12 0 0 Z " fill="#DEDEDE" transform="translate(629,395)"/>
<path d="M0 0 C0.66 0 1.32 0 2 0 C2.33 1.65 2.66 3.3 3 5 C3.78375 4.79375 4.5675 4.5875 5.375 4.375 C6.674375 4.189375 6.674375 4.189375 8 4 C10 6 10 6 10.1953125 8.8203125 C10.16050781 10.45613281 10.16050781 10.45613281 10.125 12.125 C10.10695313 13.22070312 10.08890625 14.31640625 10.0703125 15.4453125 C10.03550781 16.70988281 10.03550781 16.70988281 10 18 C9.34 18 8.68 18 8 18 C7.67 14.37 7.34 10.74 7 7 C5.68 7.33 4.36 7.66 3 8 C2.67 11.3 2.34 14.6 2 18 C1.34 18 0.68 18 0 18 C0 12.06 0 6.12 0 0 Z " fill="#646A77" transform="translate(768,482)"/>
<path d="M0 0 C1.4540625 0.0309375 1.4540625 0.0309375 2.9375 0.0625 C3.5975 1.3825 4.2575 2.7025 4.9375 4.0625 C2.6275 3.7325 0.3175 3.4025 -2.0625 3.0625 C-2.0625 3.7225 -2.0625 4.3825 -2.0625 5.0625 C0.2475 5.7225 2.5575 6.3825 4.9375 7.0625 C4.9375 9.0425 4.9375 11.0225 4.9375 13.0625 C2.22870665 14.41689668 -0.07183268 14.12751451 -3.0625 14.0625 C-3.7225 12.7425 -4.3825 11.4225 -5.0625 10.0625 C-2.7525 10.3925 -0.4425 10.7225 1.9375 11.0625 C2.2675 10.0725 2.5975 9.0825 2.9375 8.0625 C1.98875 8.10375 1.04 8.145 0.0625 8.1875 C-3.0625 8.0625 -3.0625 8.0625 -5.0625 6.0625 C-4.33395709 0.0884481 -4.33395709 0.0884481 0 0 Z " fill="#CBCBCB" transform="translate(691.0625,398.9375)"/>
<path d="M0 0 C1.32 0.33 2.64 0.66 4 1 C4.86625 0.814375 5.7325 0.62875 6.625 0.4375 C7.40875 0.293125 8.1925 0.14875 9 0 C11 2 11 2 11 6 C10.01 6 9.02 6 8 6 C8 5.01 8 4.02 8 3 C6.68 3.33 5.36 3.66 4 4 C3.67 7.3 3.34 10.6 3 14 C2.01 14 1.02 14 0 14 C0 9.38 0 4.76 0 0 Z " fill="#FADBDB" transform="translate(1210,399)"/>
<path d="M0 0 C0 0.66 0 1.32 0 2 C-2.31 1.67 -4.62 1.34 -7 1 C-6.67 1.99 -6.34 2.98 -6 4 C-2.99152582 5.22520264 -2.99152582 5.22520264 0 6 C0.625 8.375 0.625 8.375 1 11 C-1 13 -1 13 -4.625 13.125 C-5.73875 13.08375 -6.8525 13.0425 -8 13 C-8.33 11.68 -8.66 10.36 -9 9 C-8.34 9 -7.68 9 -7 9 C-7 9.66 -7 10.32 -7 11 C-5.35 10.67 -3.7 10.34 -2 10 C-2 9.34 -2 8.68 -2 8 C-2.969375 7.690625 -3.93875 7.38125 -4.9375 7.0625 C-8 6 -8 6 -9 5 C-9.04063832 3.33382885 -9.042721 1.66611905 -9 0 C-5.93109813 -1.53445094 -3.29905734 -0.54984289 0 0 Z " fill="#606672" transform="translate(979,487)"/>
<path d="M0 0 C0.33 0.99 0.66 1.98 1 3 C2.98 3 4.96 3 7 3 C7 3.66 7 4.32 7 5 C5.35 5 3.7 5 2 5 C2 8.3 2 11.6 2 15 C3.65 15 5.3 15 7 15 C7 15.66 7 16.32 7 17 C4.125 17.125 4.125 17.125 1 17 C-1 15 -1 15 -1.1953125 12.6171875 C-1.16050781 11.25980469 -1.16050781 11.25980469 -1.125 9.875 C-1.10695313 8.96492188 -1.08890625 8.05484375 -1.0703125 7.1171875 C-1.04710937 6.41851562 -1.02390625 5.71984375 -1 5 C-1.99 5 -2.98 5 -4 5 C-4 4.34 -4 3.68 -4 3 C-2.68 3 -1.36 3 0 3 C0 2.01 0 1.02 0 0 Z " fill="#5A5F6A" transform="translate(786,483)"/>
<path d="M0 0 C3.3 0 6.6 0 10 0 C10 0.66 10 1.32 10 2 C7.36 2 4.72 2 2 2 C2 3.98 2 5.96 2 8 C4.64 8 7.28 8 10 8 C10 8.66 10 9.32 10 10 C7.36 10 4.72 10 2 10 C2 12.64 2 15.28 2 18 C1.34 18 0.68 18 0 18 C0 12.06 0 6.12 0 0 Z " fill="#F1F1F1" transform="translate(888,395)"/>
<path d="M0 0 C6.0546875 -0.1953125 6.0546875 -0.1953125 8 0 C10 2 10 2 10.1953125 4.8203125 C10.16050781 6.45613281 10.16050781 6.45613281 10.125 8.125 C10.10695313 9.22070312 10.08890625 10.31640625 10.0703125 11.4453125 C10.04710937 12.28835938 10.02390625 13.13140625 10 14 C9.34 14 8.68 14 8 14 C7.67 10.37 7.34 6.74 7 3 C5.68 3.33 4.36 3.66 3 4 C2.67 7.3 2.34 10.6 2 14 C1.34 14 0.68 14 0 14 C0 9.38 0 4.76 0 0 Z " fill="#E9E9E9" transform="translate(859,399)"/>
<path d="M0 0 C0.66 0 1.32 0 2 0 C2 1.32 2 2.64 2 4 C3.98 4 5.96 4 8 4 C8 4.66 8 5.32 8 6 C6.02 6 4.04 6 2 6 C2.33 8.97 2.66 11.94 3 15 C4.65 15.33 6.3 15.66 8 16 C8 16.66 8 17.32 8 18 C5.125 18.125 5.125 18.125 2 18 C0 16 0 16 -0.1953125 13.6171875 C-0.16050781 12.25980469 -0.16050781 12.25980469 -0.125 10.875 C-0.10695313 9.96492188 -0.08890625 9.05484375 -0.0703125 8.1171875 C-0.04710937 7.41851562 -0.02390625 6.71984375 0 6 C-1.32 6 -2.64 6 -4 6 C-4 5.34 -4 4.68 -4 4 C-2.68 4 -1.36 4 0 4 C0 2.68 0 1.36 0 0 Z " fill="#E1E1E1" transform="translate(876,395)"/>
<path d="M0 0 C2.31 0 4.62 0 7 0 C7 3.96 7 7.92 7 12 C8.32 12 9.64 12 11 12 C11 12.66 11 13.32 11 14 C7.37 14 3.74 14 0 14 C0 13.34 0 12.68 0 12 C1.32 12 2.64 12 4 12 C4 8.7 4 5.4 4 2 C2.68 2 1.36 2 0 2 C0 1.34 0 0.68 0 0 Z " fill="#C5C5C5" transform="translate(816,399)"/>
<path d="M0 0 C0.66 0 1.32 0 2 0 C2 1.32 2 2.64 2 4 C3.98 4 5.96 4 8 4 C8 4.66 8 5.32 8 6 C6.02 6 4.04 6 2 6 C2.33 8.97 2.66 11.94 3 15 C4.65 15.33 6.3 15.66 8 16 C8 16.66 8 17.32 8 18 C5.125 18.125 5.125 18.125 2 18 C0 16 0 16 -0.1953125 13.6171875 C-0.16050781 12.25980469 -0.16050781 12.25980469 -0.125 10.875 C-0.10695313 9.96492188 -0.08890625 9.05484375 -0.0703125 8.1171875 C-0.04710937 7.41851562 -0.02390625 6.71984375 0 6 C-1.32 6 -2.64 6 -4 6 C-4 5.34 -4 4.68 -4 4 C-2.68 4 -1.36 4 0 4 C0 2.68 0 1.36 0 0 Z " fill="#E1E1E1" transform="translate(660,395)"/>
<path d="M0 0 C2.31 0 4.62 0 7 0 C6.67 0.66 6.34 1.32 6 2 C4.68 2 3.36 2 2 2 C2 3.65 2 5.3 2 7 C3.65 7 5.3 7 7 7 C7 7.66 7 8.32 7 9 C5.35 9 3.7 9 2 9 C2 11.31 2 13.62 2 16 C3.32 16 4.64 16 6 16 C6 16.66 6 17.32 6 18 C4.02 18 2.04 18 0 18 C0 12.06 0 6.12 0 0 Z " fill="#686E7C" transform="translate(1114,482)"/>
<path d="M0 0 C0.66 0 1.32 0 2 0 C2 1.32 2 2.64 2 4 C3.65 4 5.3 4 7 4 C7 4.66 7 5.32 7 6 C5.35 6 3.7 6 2 6 C2 9.3 2 12.6 2 16 C3.65 16 5.3 16 7 16 C7 16.66 7 17.32 7 18 C5.00045254 18.04254356 2.99958364 18.04080783 1 18 C0 17 0 17 -0.09765625 14.49609375 C-0.08605469 13.48675781 -0.07445312 12.47742188 -0.0625 11.4375 C-0.05347656 10.42558594 -0.04445313 9.41367187 -0.03515625 8.37109375 C-0.02355469 7.58863281 -0.01195312 6.80617188 0 6 C-1.32 6 -2.64 6 -4 6 C-4 5.34 -4 4.68 -4 4 C-2.68 4 -1.36 4 0 4 C0 2.68 0 1.36 0 0 Z " fill="#666C79" transform="translate(800,482)"/>
<path d="M0 0 C0.66 0 1.32 0 2 0 C2 1.32 2 2.64 2 4 C3.65 4 5.3 4 7 4 C7 4.66 7 5.32 7 6 C5.35 6 3.7 6 2 6 C2 9.3 2 12.6 2 16 C3.65 16 5.3 16 7 16 C7 16.66 7 17.32 7 18 C5.00045254 18.04254356 2.99958364 18.04080783 1 18 C0 17 0 17 -0.09765625 14.49609375 C-0.08605469 13.48675781 -0.07445312 12.47742188 -0.0625 11.4375 C-0.05347656 10.42558594 -0.04445313 9.41367187 -0.03515625 8.37109375 C-0.02355469 7.58863281 -0.01195312 6.80617188 0 6 C-1.32 6 -2.64 6 -4 6 C-4 5.34 -4 4.68 -4 4 C-2.68 4 -1.36 4 0 4 C0 2.68 0 1.36 0 0 Z " fill="#ECECEC" transform="translate(646,395)"/>
<path d="M0 0 C4.875 0.875 4.875 0.875 6 2 C6.1245486 3.64230364 6.17568524 5.29052276 6.1875 6.9375 C6.20167969 7.83339844 6.21585938 8.72929688 6.23046875 9.65234375 C6 12 6 12 4 14 C1.375 13.625 1.375 13.625 -1 13 C-1 12.01 -1 11.02 -1 10 C0.98 10.495 0.98 10.495 3 11 C3 8.36 3 5.72 3 3 C1.35 3.33 -0.3 3.66 -2 4 C-1.34 2.68 -0.68 1.36 0 0 Z " fill="#E9E8DE" transform="translate(931,561)"/>
<path d="M0 0 C3.625 0.375 3.625 0.375 7 1 C7.33 2.32 7.66 3.64 8 5 C7.34 5 6.68 5 6 5 C5.67 4.34 5.34 3.68 5 3 C3.68 3 2.36 3 1 3 C1 5.64 1 8.28 1 11 C2.32 11 3.64 11 5 11 C5.33 10.34 5.66 9.68 6 9 C6.66 9 7.32 9 8 9 C7.67 10.32 7.34 11.64 7 13 C3.625 13.625 3.625 13.625 0 14 C-2 12 -2 12 -2.265625 9.6875 C-2.26046875 8.800625 -2.2553125 7.91375 -2.25 7 C-2.25515625 6.113125 -2.2603125 5.22625 -2.265625 4.3125 C-2 2 -2 2 0 0 Z " fill="#626874" transform="translate(900,486)"/>
<path d="M0 0 C6.0546875 -0.1953125 6.0546875 -0.1953125 8 0 C10 2 10 2 10 6 C9.34 6 8.68 6 8 6 C7.67 5.01 7.34 4.02 7 3 C6.01 3 5.02 3 4 3 C3.67 6.63 3.34 10.26 3 14 C2.01 14 1.02 14 0 14 C0 9.38 0 4.76 0 0 Z " fill="#575C67" transform="translate(1085,486)"/>
<path d="M0 0 C3.625 0.375 3.625 0.375 7 1 C7.33 2.32 7.66 3.64 8 5 C7.34 5 6.68 5 6 5 C5.67 4.34 5.34 3.68 5 3 C3.68 3 2.36 3 1 3 C1 5.64 1 8.28 1 11 C2.32 11 3.64 11 5 11 C5.33 10.34 5.66 9.68 6 9 C6.66 9 7.32 9 8 9 C7.67 10.32 7.34 11.64 7 13 C3.625 13.625 3.625 13.625 0 14 C-2 12 -2 12 -2.265625 9.6875 C-2.26046875 8.800625 -2.2553125 7.91375 -2.25 7 C-2.25515625 6.113125 -2.2603125 5.22625 -2.265625 4.3125 C-2 2 -2 2 0 0 Z " fill="#E1E1E1" transform="translate(991,399)"/>
<path d="M0 0 C2.125 0.375 2.125 0.375 4 1 C4.3497847 6.33421663 4.3497847 6.33421663 4 9 C2.125 10.75 2.125 10.75 0 12 C-1.13876335 14.0271087 -1.13876335 14.0271087 -2 16 C-2.05384521 13.70858714 -2.09272087 11.41681812 -2.125 9.125 C-2.14820313 7.84882813 -2.17140625 6.57265625 -2.1953125 5.2578125 C-2 2 -2 2 0 0 Z " fill="#363636" transform="translate(676,401)"/>
<path d="M0 0 C0.66 0 1.32 0 2 0 C2 0.99 2 1.98 2 3 C3.65 3 5.3 3 7 3 C7 3.66 7 4.32 7 5 C5.35 5 3.7 5 2 5 C2.33 7.97 2.66 10.94 3 14 C4.32 14.33 5.64 14.66 7 15 C7 15.66 7 16.32 7 17 C4.625 17.125 4.625 17.125 2 17 C0 15 0 15 -0.1953125 12.6171875 C-0.16050781 11.25980469 -0.16050781 11.25980469 -0.125 9.875 C-0.10695313 8.96492188 -0.08890625 8.05484375 -0.0703125 7.1171875 C-0.04710937 6.41851562 -0.02390625 5.71984375 0 5 C-1.32 5 -2.64 5 -4 5 C-4 4.34 -4 3.68 -4 3 C-2.68 3 -1.36 3 0 3 C0 2.01 0 1.02 0 0 Z " fill="#69707E" transform="translate(987,483)"/>
<path d="M0 0 C0.66 0 1.32 0 2 0 C1.48623617 4.88075639 -0.08208779 8.96506548 -1.9453125 13.453125 C-3.38787938 16.93665688 -4.69058189 20.4645711 -6 24 C-6.99 23.67 -7.98 23.34 -9 23 C-7.69202911 19.35252562 -6.37787012 15.7073119 -5.0625 12.0625 C-4.50272461 10.50112305 -4.50272461 10.50112305 -3.93164062 8.90820312 C-3.57392578 7.91884766 -3.21621094 6.92949219 -2.84765625 5.91015625 C-2.51773682 4.99371338 -2.18781738 4.07727051 -1.84790039 3.13305664 C-1 1 -1 1 0 0 Z " fill="#5D636F" transform="translate(1079,479)"/>
<path d="M0 0 C0.66 0 1.32 0 2 0 C1.48623617 4.88075639 -0.08208779 8.96506548 -1.9453125 13.453125 C-3.38787938 16.93665688 -4.69058189 20.4645711 -6 24 C-6.99 23.67 -7.98 23.34 -9 23 C-7.69202911 19.35252562 -6.37787012 15.7073119 -5.0625 12.0625 C-4.50272461 10.50112305 -4.50272461 10.50112305 -3.93164062 8.90820312 C-3.57392578 7.91884766 -3.21621094 6.92949219 -2.84765625 5.91015625 C-2.51773682 4.99371338 -2.18781738 4.07727051 -1.84790039 3.13305664 C-1 1 -1 1 0 0 Z " fill="#5D636F" transform="translate(863,479)"/>
<path d="M0 0 C2.31 0 4.62 0 7 0 C7 5.28 7 10.56 7 16 C8.98 16 10.96 16 13 16 C13 16.66 13 17.32 13 18 C10.66705225 18.04241723 8.33297433 18.04092937 6 18 C5 17 5 17 4.90234375 13.62109375 C4.90901631 12.22652923 4.92097468 10.83198257 4.9375 9.4375 C4.94201172 8.72658203 4.94652344 8.01566406 4.95117188 7.28320312 C4.96299136 5.52209987 4.98092737 3.76103964 5 2 C3.35 2 1.7 2 0 2 C0 1.34 0 0.68 0 0 Z " fill="#686F7C" transform="translate(925,482)"/>
<path d="M0 0 C2.31 0 4.62 0 7 0 C7 5.28 7 10.56 7 16 C8.98 16 10.96 16 13 16 C13 16.66 13 17.32 13 18 C10.66705225 18.04241723 8.33297433 18.04092937 6 18 C5 17 5 17 4.90234375 13.62109375 C4.90901631 12.22652923 4.92097468 10.83198257 4.9375 9.4375 C4.94201172 8.72658203 4.94652344 8.01566406 4.95117188 7.28320312 C4.96299136 5.52209987 4.98092737 3.76103964 5 2 C3.35 2 1.7 2 0 2 C0 1.34 0 0.68 0 0 Z " fill="#E9E9E9" transform="translate(915,395)"/>
<path d="M0 0 C2.31 0 4.62 0 7 0 C7.33 4.95 7.66 9.9 8 15 C9.65 15.33 11.3 15.66 13 16 C13 16.66 13 17.32 13 18 C10.125 18.125 10.125 18.125 7 18 C5 16 5 16 4.8046875 12.7421875 C4.82789063 11.46601563 4.85109375 10.18984375 4.875 8.875 C4.89304687 7.59367187 4.91109375 6.31234375 4.9296875 4.9921875 C4.95289063 4.00476563 4.97609375 3.01734375 5 2 C3.35 2 1.7 2 0 2 C0 1.34 0 0.68 0 0 Z " fill="#686E7C" transform="translate(867,482)"/>
<path d="M0 0 C1.67542976 0.28604898 3.34385343 0.61781233 5 1 C5 3.64 5 6.28 5 9 C3.34385343 9.38218767 1.67542976 9.71395102 0 10 C-1 9 -1 9 -1.1328125 7.1875 C-1.13023437 6.465625 -1.12765625 5.74375 -1.125 5 C-1.12757813 4.278125 -1.13015625 3.55625 -1.1328125 2.8125 C-1 1 -1 1 0 0 Z " fill="#2F2F2F" transform="translate(1006,401)"/>
<path d="M0 0 C0.66 0 1.32 0 2 0 C1.39461212 3.35951302 0.56675919 6.44884363 -0.62890625 9.64453125 C-0.94150391 10.48564453 -1.25410156 11.32675781 -1.57617188 12.19335938 C-2.0644043 13.48983398 -2.0644043 13.48983398 -2.5625 14.8125 C-2.89185547 15.69615234 -3.22121094 16.57980469 -3.56054688 17.49023438 C-4.37034601 19.66143495 -5.18358893 21.83127889 -6 24 C-6.66 24 -7.32 24 -8 24 C-6.5102402 15.50836915 -3.31428738 7.9105161 0 0 Z " fill="#D6D6D6" transform="translate(723,392)"/>
<path d="M0 0 C2.31 0 4.62 0 7 0 C7.33 4.95 7.66 9.9 8 15 C9.65 15.33 11.3 15.66 13 16 C13 16.66 13 17.32 13 18 C10.125 18.125 10.125 18.125 7 18 C5 16 5 16 4.8046875 12.7421875 C4.82789063 11.46601563 4.85109375 10.18984375 4.875 8.875 C4.89304687 7.59367187 4.91109375 6.31234375 4.9296875 4.9921875 C4.95289063 4.00476563 4.97609375 3.01734375 5 2 C3.35 2 1.7 2 0 2 C0 1.34 0 0.68 0 0 Z " fill="#ECECEC" transform="translate(929,395)"/>
<path d="M0 0 C0.66 0 1.32 0 2 0 C0.48526781 7.98676972 -2.16802552 15.40122878 -5 23 C-5.99 23 -6.98 23 -8 23 C-5.81659819 15.13620323 -3.00714974 7.58324716 0 0 Z " fill="#606672" transform="translate(1107,480)"/>
<path d="M0 0 C0.66 0 1.32 0 2 0 C0.05797655 8.02071473 -2.66839495 15.45450713 -6 23 C-6.66 23 -7.32 23 -8 23 C-6.05797655 14.97928527 -3.33160505 7.54549287 0 0 Z " fill="#616773" transform="translate(848,480)"/>
<path d="M0 0 C0.66 0 1.32 0 2 0 C0.48526781 7.98676972 -2.16802552 15.40122878 -5 23 C-5.99 23 -6.98 23 -8 23 C-5.81659819 15.13620323 -3.00714974 7.58324716 0 0 Z " fill="#D6D6D6" transform="translate(737,393)"/>
<path d="M0 0 C1.98 0 3.96 0 6 0 C6.33 4.95 6.66 9.9 7 15 C8.65 15.33 10.3 15.66 12 16 C12 16.66 12 17.32 12 18 C9.125 18.125 9.125 18.125 6 18 C4 16 4 16 3.8046875 12.7421875 C3.82789063 11.46601563 3.85109375 10.18984375 3.875 8.875 C3.89304687 7.59367187 3.91109375 6.31234375 3.9296875 4.9921875 C3.95289063 4.00476563 3.97609375 3.01734375 4 2 C2.68 2 1.36 2 0 2 C0 1.34 0 0.68 0 0 Z " fill="#E2E2E2" transform="translate(829,395)"/>
<path d="M0 0 C4.875 0.875 4.875 0.875 6 2 C6.07244053 4.01964199 6.08377188 6.04167124 6.0625 8.0625 C6.05347656 9.16722656 6.04445313 10.27195312 6.03515625 11.41015625 C6.02355469 12.26480469 6.01195312 13.11945313 6 14 C5.01 14 4.02 14 3 14 C2.67 10.7 2.34 7.4 2 4 C0.68 4 -0.64 4 -2 4 C-1.34 2.68 -0.68 1.36 0 0 Z " fill="#FBDFDF" transform="translate(1186,399)"/>
<path d="M0 0 C0.99 0 1.98 0 3 0 C3 5.94 3 11.88 3 18 C2.01 18 1.02 18 0 18 C0 12.06 0 6.12 0 0 Z " fill="#FAF0EE" transform="translate(977,557)"/>
<path d="M0 0 C0.33 0.66 0.66 1.32 1 2 C1.66 2 2.32 2 3 2 C3.90991047 4.97788882 4.25960381 6.43497994 2.9375 9.3125 C1 11 1 11 -2 11.4375 C-5 11 -5 11 -6.875 9.75 C-8 8 -8 8 -8 4 C-7.34 4 -6.68 4 -6 4 C-5.34 5.32 -4.68 6.64 -4 8 C-2.68 8 -1.36 8 0 8 C0 5.36 0 2.72 0 0 Z " fill="#5E6470" transform="translate(1020,489)"/>
<path d="M0 0 C2.875 -0.125 2.875 -0.125 6 0 C8 2 8 2 8.1953125 4.8203125 C8.16050781 6.45613281 8.16050781 6.45613281 8.125 8.125 C8.10695313 9.22070312 8.08890625 10.31640625 8.0703125 11.4453125 C8.04710937 12.28835938 8.02390625 13.13140625 8 14 C7.34 14 6.68 14 6 14 C4.95550089 10.86650268 5.06576355 10.01031744 6 7 C4.35 7 2.7 7 1 7 C1 6.67 1 6.34 1 6 C2.65 6 4.3 6 6 6 C5.67 5.01 5.34 4.02 5 3 C3.02 3 1.04 3 -1 3 C-0.67 2.01 -0.34 1.02 0 0 Z " fill="#666D7A" transform="translate(914,486)"/>
<path d="M0 0 C2.0625 0.4375 2.0625 0.4375 4 1 C4 3.64 4 6.28 4 9 C2.0625 9.5625 2.0625 9.5625 0 10 C-1 9 -1 9 -1.1328125 7.1875 C-1.13023437 6.465625 -1.12765625 5.74375 -1.125 5 C-1.12757813 4.278125 -1.13015625 3.55625 -1.1328125 2.8125 C-1 1 -1 1 0 0 Z " fill="#222222" transform="translate(959,488)"/>
<path d="M0 0 C2.0625 0.4375 2.0625 0.4375 4 1 C4 3.64 4 6.28 4 9 C2.0625 9.5625 2.0625 9.5625 0 10 C-1 9 -1 9 -1.1328125 7.1875 C-1.13023437 6.465625 -1.12765625 5.74375 -1.125 5 C-1.12757813 4.278125 -1.13015625 3.55625 -1.1328125 2.8125 C-1 1 -1 1 0 0 Z " fill="#222222" transform="translate(887,488)"/>
<path d="M0 0 C2.0625 0.4375 2.0625 0.4375 4 1 C4 3.64 4 6.28 4 9 C2.0625 9.5625 2.0625 9.5625 0 10 C-1 9 -1 9 -1.1328125 7.1875 C-1.13023437 6.465625 -1.12765625 5.74375 -1.125 5 C-1.12757813 4.278125 -1.13015625 3.55625 -1.1328125 2.8125 C-1 1 -1 1 0 0 Z " fill="#222222" transform="translate(815,488)"/>
<path d="M0 0 C2.0625 0.4375 2.0625 0.4375 4 1 C4 3.64 4 6.28 4 9 C2.0625 9.5625 2.0625 9.5625 0 10 C-1 9 -1 9 -1.1328125 7.1875 C-1.13023437 6.465625 -1.12765625 5.74375 -1.125 5 C-1.12757813 4.278125 -1.13015625 3.55625 -1.1328125 2.8125 C-1 1 -1 1 0 0 Z " fill="#242424" transform="translate(949,401)"/>
<path d="M0 0 C1.134375 0.020625 2.26875 0.04125 3.4375 0.0625 C3.7675 1.7125 4.0975 3.3625 4.4375 5.0625 C1.1375 5.0625 -2.1625 5.0625 -5.5625 5.0625 C-4.31580396 0.07571586 -4.31580396 0.07571586 0 0 Z " fill="#282828" transform="translate(897.5625,301.9375)"/>
<path d="M0 0 C1.66611905 -0.042721 3.33382885 -0.04063832 5 0 C6 1 6 1 6.09765625 3.28515625 C6.08605469 4.20167969 6.07445312 5.11820312 6.0625 6.0625 C6.05347656 6.98160156 6.04445313 7.90070313 6.03515625 8.84765625 C6.02355469 9.55792969 6.01195312 10.26820313 6 11 C4.35 11.66 2.7 12.32 1 13 C0.67 12.01 0.34 11.02 0 10 C0.99 10 1.98 10 3 10 C2.87625 8.72125 2.7525 7.4425 2.625 6.125 C2.55539062 5.40570313 2.48578125 4.68640625 2.4140625 3.9453125 C2.13625251 1.77331755 2.13625251 1.77331755 0 0 Z " fill="#FBE2E2" transform="translate(1200,400)"/>
<path d="M0 0 C0.99 0 1.98 0 3 0 C3 4.62 3 9.24 3 14 C2.01 14 1.02 14 0 14 C0 9.38 0 4.76 0 0 Z " fill="#FDEBEB" transform="translate(1253,399)"/>
<path d="M0 0 C0.36334661 7.38804781 0.36334661 7.38804781 -1.1875 10 C-3.64948102 11.35833436 -5.23410362 11.42552252 -8 11 C-10.56687367 7.1496895 -9.83288724 5.41430237 -9 1 C-8.67 1 -8.34 1 -8 1 C-7.67 3.31 -7.34 5.62 -7 8 C-6.01 8 -5.02 8 -4 8 C-3.814375 6.2984375 -3.814375 6.2984375 -3.625 4.5625 C-3.41875 3.386875 -3.2125 2.21125 -3 1 C-1 0 -1 0 0 0 Z " fill="#B9B9B9" transform="translate(956,402)"/>
<path d="M0 0 C1.66611905 -0.042721 3.33382885 -0.04063832 5 0 C6 1 6 1 6.125 3.5 C6 6 6 6 5 7 C3.33382885 7.04063832 1.66611905 7.042721 0 7 C0 4.69 0 2.38 0 0 Z " fill="#252526" transform="translate(1116,491)"/>
<path d="M0 0 C1.60725635 3.21451269 1.05748185 6.43612536 1 10 C1.66 10.33 2.32 10.66 3 11 C3 11.66 3 12.32 3 13 C-1.875 12.125 -1.875 12.125 -3 11 C-3.47524752 3.63366337 -3.47524752 3.63366337 -1.5 1 C-1.005 0.67 -0.51 0.34 0 0 Z " fill="#E9E8DE" transform="translate(915,562)"/>
<path d="M0 0 C0.99 0 1.98 0 3 0 C3 4.29 3 8.58 3 13 C2.01 13 1.02 13 0 13 C0 8.71 0 4.42 0 0 Z " fill="#DAE1CF" transform="translate(988,557)"/>
<path d="M0 0 C2.0625 0.4375 2.0625 0.4375 4 1 C4.33 2.65 4.66 4.3 5 6 C2.625 6.625 2.625 6.625 0 7 C-0.66 6.34 -1.32 5.68 -2 5 C-1.46428571 1.46428571 -1.46428571 1.46428571 0 0 Z " fill="#262728" transform="translate(1045,491)"/>
<path d="M0 0 C-0.66 0.66 -1.32 1.32 -2 2 C-1.34 3.32 -0.68 4.64 0 6 C-1.98 6 -3.96 6 -6 6 C-6.33 5.34 -6.66 4.68 -7 4 C-7.33 5.98 -7.66 7.96 -8 10 C-8.33 10 -8.66 10 -9 10 C-9.36103152 3.6217765 -9.36103152 3.6217765 -7.875 1.0625 C-5.214973 -0.44484863 -2.99793795 -0.19986253 0 0 Z " fill="#EB8484" transform="translate(1247,399)"/>
<path d="M0 0 C1.32 0 2.64 0 4 0 C4 2.64 4 5.28 4 8 C2.35 7.67 0.7 7.34 -1 7 C-1.04254356 5.00045254 -1.04080783 2.99958364 -1 1 C-0.67 0.67 -0.34 0.34 0 0 Z " fill="#168A15" transform="translate(930,564)"/>
<path d="M0 0 C2.475 0.495 2.475 0.495 5 1 C5 2.98 5 4.96 5 7 C3.35 7.33 1.7 7.66 0 8 C0 5.36 0 2.72 0 0 Z " fill="#138812" transform="translate(915,564)"/>
<path d="M0 0 C1.67542976 0.28604898 3.34385343 0.61781233 5 1 C5 2.65 5 4.3 5 6 C3.34385343 6.38218767 1.67542976 6.71395102 0 7 C-1 6 -1 6 -1.125 3.5 C-1 1 -1 1 0 0 Z " fill="#252627" transform="translate(1016,491)"/>
<path d="M0 0 C1.32 0 2.64 0 4 0 C4 2.64 4 5.28 4 8 C2.35 7.67 0.7 7.34 -1 7 C-1.04254356 5.00045254 -1.04080783 2.99958364 -1 1 C-0.67 0.67 -0.34 0.34 0 0 Z " fill="#DE3333" transform="translate(1199,402)"/>
<path d="M0 0 C0 2 0 4 0 6 C-5.75 6.125 -5.75 6.125 -8 5 C-7.625 3.0625 -7.625 3.0625 -7 1 C-4.53721199 -0.231394 -2.7204945 -0.07159196 0 0 Z " fill="#87BC81" transform="translate(963,561)"/>
<path d="M0 0 C0.36474164 7.41641337 0.36474164 7.41641337 -1.25 10 C-3 11 -3 11 -7 11 C-7.66 12.32 -8.32 13.64 -9 15 C-9 12.69 -9 10.38 -9 8 C-7.35 8 -5.7 8 -4 8 C-3.814375 6.2984375 -3.814375 6.2984375 -3.625 4.5625 C-3.41875 3.386875 -3.2125 2.21125 -3 1 C-1 0 -1 0 0 0 Z " fill="#555A65" transform="translate(822,489)"/>
<path d="M0 0 C0.66 0 1.32 0 2 0 C3.23180249 6.15901243 2.73030908 11.78675502 2 18 C1.34 18 0.68 18 0 18 C0 12.06 0 6.12 0 0 Z " fill="#6A717F" transform="translate(941,482)"/>
<path d="M0 0 C2.0625 0.4375 2.0625 0.4375 4 1 C4 2.98 4 4.96 4 7 C2.0625 7.5625 2.0625 7.5625 0 8 C-1 7 -1 7 -1.125 4 C-1 1 -1 1 0 0 Z " fill="#0C850B" transform="translate(973,564)"/>
<path d="M0 0 C4.70588235 0.70588235 4.70588235 0.70588235 6 2 C6.07244053 4.01964199 6.08377188 6.04167124 6.0625 8.0625 C6.05347656 9.16722656 6.04445313 10.27195312 6.03515625 11.41015625 C6.02355469 12.26480469 6.01195312 13.11945313 6 14 C5.34 14 4.68 14 4 14 C3.97421875 13.22914063 3.9484375 12.45828125 3.921875 11.6640625 C3.86515625 10.66117187 3.8084375 9.65828125 3.75 8.625 C3.70359375 7.62726563 3.6571875 6.62953125 3.609375 5.6015625 C3.27839115 2.8473523 3.27839115 2.8473523 0.953125 1.6484375 C0.30859375 1.43445313 -0.3359375 1.22046875 -1 1 C-0.67 0.67 -0.34 0.34 0 0 Z " fill="#676D7B" transform="translate(945,486)"/>
<path d="M0 0 C0.33 0 0.66 0 1 0 C1.08107583 1.93681161 1.13922475 3.8745934 1.1875 5.8125 C1.22230469 6.89144531 1.25710938 7.97039062 1.29296875 9.08203125 C1 12 1 12 -0.28125 13.90625 C-3.15458146 15.73473366 -5.81506126 14.66102502 -9 14 C-8.67 13.01 -8.34 12.02 -8 11 C-6.8553125 11.2784375 -6.8553125 11.2784375 -5.6875 11.5625 C-2.91032625 12.22819173 -2.91032625 12.22819173 0 11 C0 7.37 0 3.74 0 0 Z " fill="#5C616D" transform="translate(1037,485)"/>
<path d="M0 0 C1.67542976 0.28604898 3.34385343 0.61781233 5 1 C5 2.65 5 4.3 5 6 C3.68 5.67 2.36 5.34 1 5 C1 5.66 1 6.32 1 7 C0.34 7 -0.32 7 -1 7 C-1.04254356 5.00045254 -1.04080783 2.99958364 -1 1 C-0.67 0.67 -0.34 0.34 0 0 Z " fill="#242526" transform="translate(1059,484)"/>
<path d="M0 0 C1.32 0 2.64 0 4 0 C4 1.98 4 3.96 4 6 C1.29120665 7.35439668 -1.00933268 7.06501451 -4 7 C-4.66 5.68 -5.32 4.36 -6 3 C-3.69 3.33 -1.38 3.66 1 4 C1.33 3.01 1.66 2.02 2 1 C1.34 0.67 0.68 0.34 0 0 Z " fill="#E0E0E0" transform="translate(692,406)"/>
<path d="M0 0 C2.35953094 2.35953094 2.49141413 3.77895617 3 7 C2.34 7 1.68 7 1 7 C1 13.27 1 19.54 1 26 C0.67 26 0.34 26 0 26 C0 17.42 0 8.84 0 0 Z " fill="#373737" transform="translate(859,299)"/>
<path d="M0 0 C2.875 -0.1875 2.875 -0.1875 6 0 C8.36574234 3.5486135 8.10865265 4.5764525 7.625 8.6875 C7.45871094 10.17830078 7.45871094 10.17830078 7.2890625 11.69921875 C7.14597656 12.83810547 7.14597656 12.83810547 7 14 C6.67 14 6.34 14 6 14 C5.67 10.37 5.34 6.74 5 3 C2.69 3.33 0.38 3.66 -2 4 C-1.34 2.68 -0.68 1.36 0 0 Z " fill="#5A606B" transform="translate(1058,482)"/>
<path d="M0 0 C0.33 0.99 0.66 1.98 1 3 C3.64 2.67 6.28 2.34 9 2 C8.67 2.99 8.34 3.98 8 5 C1.25 6.125 1.25 6.125 -1 5 C-0.67 3.35 -0.34 1.7 0 0 Z " fill="#D9E1CF" transform="translate(957,569)"/>
<path d="M0 0 C1.32 0.33 2.64 0.66 4 1 C3.01 1.495 3.01 1.495 2 2 C2 5.96 2 9.92 2 14 C1.34 14 0.68 14 0 14 C0 9.38 0 4.76 0 0 Z " fill="#D4D4D4" transform="translate(1017,399)"/>
<path d="M0 0 C3.625 0.375 3.625 0.375 7 1 C7.33 2.32 7.66 3.64 8 5 C7.34 5 6.68 5 6 5 C5.67 4.34 5.34 3.68 5 3 C3.68 3 2.36 3 1 3 C0.67 5.31 0.34 7.62 0 10 C-0.33 10 -0.66 10 -1 10 C-1.9765625 3.9453125 -1.9765625 3.9453125 -2 2 C-1.34 1.34 -0.68 0.68 0 0 Z " fill="#D8D8D8" transform="translate(991,399)"/>
<path d="M0 0 C0 0.66 0 1.32 0 2 C-2.31 1.67 -4.62 1.34 -7 1 C-6.24849977 4.27773504 -6.24849977 4.27773504 -3 6 C-4.66611905 6.042721 -6.33382885 6.04063832 -8 6 C-9 5 -9 5 -9.0625 2.4375 C-9.041875 1.633125 -9.02125 0.82875 -9 0 C-5.93109813 -1.53445094 -3.29905734 -0.54984289 0 0 Z " fill="#656C79" transform="translate(979,487)"/>
<path d="M0 0 C0.66 0 1.32 0 2 0 C2.06058594 0.67546875 2.12117187 1.3509375 2.18359375 2.046875 C2.26738281 2.93890625 2.35117187 3.8309375 2.4375 4.75 C2.55931641 6.07257813 2.55931641 6.07257813 2.68359375 7.421875 C2.96238465 9.69350452 3.38790577 11.79851823 4 14 C3.01 14 2.02 14 1 14 C-0.20568053 9.32798795 -0.09382426 4.78503708 0 0 Z " fill="#CCCCCC" transform="translate(959,399)"/>
<path d="M0 0 C0.66 0 1.32 0 2 0 C2.06058594 0.67546875 2.12117187 1.3509375 2.18359375 2.046875 C2.26738281 2.93890625 2.35117187 3.8309375 2.4375 4.75 C2.55931641 6.07257813 2.55931641 6.07257813 2.68359375 7.421875 C2.96238465 9.69350452 3.38790577 11.79851823 4 14 C3.01 14 2.02 14 1 14 C-0.20568053 9.32798795 -0.09382426 4.78503708 0 0 Z " fill="#CCCCCC" transform="translate(743,399)"/>
<path d="M0 0 C0 1.98 0 3.96 0 6 C-1.9375 6.5625 -1.9375 6.5625 -4 7 C-5 6 -5 6 -5.0625 3.4375 C-5.041875 2.633125 -5.02125 1.82875 -5 1 C-1.125 0 -1.125 0 0 0 Z " fill="#212121" transform="translate(1035,491)"/>
<path d="M0 0 C1.99954746 -0.04254356 4.00041636 -0.04080783 6 0 C7.58894072 1.58894072 7.16998411 3.24801424 7.1875 5.4375 C7.20167969 6.24058594 7.21585938 7.04367187 7.23046875 7.87109375 C7 10 7 10 5 12 C3.39274365 8.78548731 3.94251815 5.56387464 4 2 C2.68 1.34 1.36 0.68 0 0 Z " fill="#EAEAEA" transform="translate(1006,400)"/>
<path d="M0 0 C1.65 0.33 3.3 0.66 5 1 C5.33 2.65 5.66 4.3 6 6 C5.01 6 4.02 6 3 6 C3 5.01 3 4.02 3 3 C1.35 3.33 -0.3 3.66 -2 4 C-1.34 2.68 -0.68 1.36 0 0 Z " fill="#FBE3E3" transform="translate(1215,399)"/>
<path d="M0 0 C1.65 0 3.3 0 5 0 C4.67 1.65 4.34 3.3 4 5 C2.35 4.67 0.7 4.34 -1 4 C-0.67 2.68 -0.34 1.36 0 0 Z " fill="#242425" transform="translate(915,493)"/>
<path d="M0 0 C0.33 0 0.66 0 1 0 C1.08333357 4.8333472 0.95261487 9.23692563 0 14 C-0.99 14 -1.98 14 -3 14 C-2.85691406 13.44828125 -2.71382812 12.8965625 -2.56640625 12.328125 C-1.9544691 9.81285231 -1.43873189 7.28957492 -0.9375 4.75 C-0.67259766 3.41195313 -0.67259766 3.41195313 -0.40234375 2.046875 C-0.26957031 1.37140625 -0.13679687 0.6959375 0 0 Z " fill="#D7D7D7" transform="translate(768,399)"/>
<path d="M0 0 C0.33 0.99 0.66 1.98 1 3 C2.98 3 4.96 3 7 3 C7 3.66 7 4.32 7 5 C-0.42857143 6.28571429 -0.42857143 6.28571429 -4 5 C-4 4.34 -4 3.68 -4 3 C-2.68 3 -1.36 3 0 3 C0 2.01 0 1.02 0 0 Z " fill="#6A717F" transform="translate(786,483)"/>
<path d="M0 0 C1.65 0.33 3.3 0.66 5 1 C4.67 2.32 4.34 3.64 4 5 C2.35 4.67 0.7 4.34 -1 4 C-0.67 2.68 -0.34 1.36 0 0 Z " fill="#29292B" transform="translate(1016,484)"/>
<path d="M0 0 C2.475 0.495 2.475 0.495 5 1 C5 2.32 5 3.64 5 5 C3.35 5 1.7 5 0 5 C0 3.35 0 1.7 0 0 Z " fill="#222323" transform="translate(1116,484)"/>
<path d="M0 0 C0.66 0 1.32 0 2 0 C2.33 0.99 2.66 1.98 3 3 C4.98 3 6.96 3 9 3 C9 3.66 9 4.32 9 5 C5.625 5.625 5.625 5.625 2 6 C1.34 5.34 0.68 4.68 0 4 C0 2.68 0 1.36 0 0 Z " fill="#DEDEDE" transform="translate(845,407)"/>
<path d="M0 0 C0.33 0 0.66 0 1 0 C1 3.3 1 6.6 1 10 C2.65 10 4.3 10 6 10 C6 10.66 6 11.32 6 12 C4.02 12 2.04 12 0 12 C-1.03159626 8.90521121 -0.97482862 7.47368607 -0.5625 4.3125 C-0.46066406 3.50425781 -0.35882812 2.69601562 -0.25390625 1.86328125 C-0.17011719 1.24839844 -0.08632813 0.63351562 0 0 Z " fill="#DFDFDF" transform="translate(647,401)"/>
<path d="M0 0 C0.99 0 1.98 0 3 0 C3.66 3.63 4.32 7.26 5 11 C4.01 11.33 3.02 11.66 2 12 C1.855625 10.7625 1.71125 9.525 1.5625 8.25 C1.21311498 5.43495501 0.79620634 2.7298503 0 0 Z " fill="#C6C6C6" transform="translate(762,399)"/>
<path d="M0 0 C0.66 0 1.32 0 2 0 C1.71758359 1.46015291 1.42373386 2.91809793 1.125 4.375 C0.96257813 5.18710937 0.80015625 5.99921875 0.6328125 6.8359375 C0 9 0 9 -2 11 C-3.13643966 7.59068103 -2.86747764 6.99664544 -1.5625 3.8125 C-1.13130859 2.73935547 -1.13130859 2.73935547 -0.69140625 1.64453125 C-0.46324219 1.10183594 -0.23507812 0.55914062 0 0 Z " fill="#DCDCDC" transform="translate(737,393)"/>
<path d="M0 0 C0.66 0.33 1.32 0.66 2 1 C2.1875 3.875 2.1875 3.875 2 7 C-1 9 -1 9 -3.1875 8.625 C-3.785625 8.41875 -4.38375 8.2125 -5 8 C-4.0409375 7.690625 -4.0409375 7.690625 -3.0625 7.375 C-0.65074923 6.10461791 -0.65074923 6.10461791 -0.25 2.875 C-0.1675 1.92625 -0.085 0.9775 0 0 Z " fill="#656B79" transform="translate(1050,491)"/>
<path d="M0 0 C0 0.66 0 1.32 0 2 C-3.63 2 -7.26 2 -11 2 C-11 1.34 -11 0.68 -11 0 C-7.01803543 -1.05404945 -4.01804691 -0.84098656 0 0 Z " fill="#F5F5F5" transform="translate(827,411)"/>
<path d="M0 0 C2.875 -0.125 2.875 -0.125 6 0 C8 2 8 2 8 6 C7.34 6 6.68 6 6 6 C5.67 5.01 5.34 4.02 5 3 C3.35 2.67 1.7 2.34 0 2 C0 1.34 0 0.68 0 0 Z " fill="#606673" transform="translate(1087,486)"/>
<path d="M0 0 C1.98 0.495 1.98 0.495 4 1 C4 2.32 4 3.64 4 5 C2.35 4.67 0.7 4.34 -1 4 C-0.67 2.68 -0.34 1.36 0 0 Z " fill="#252526" transform="translate(1045,484)"/>
<path d="M0 0 C1.65 0.33 3.3 0.66 5 1 C5 1.99 5 2.98 5 4 C3.02 4 1.04 4 -1 4 C-0.67 2.68 -0.34 1.36 0 0 Z " fill="#2F2F2F" transform="translate(905,401)"/>
<path d="M0 0 C1.65 0.33 3.3 0.66 5 1 C5 1.99 5 2.98 5 4 C3.02 4 1.04 4 -1 4 C-0.67 2.68 -0.34 1.36 0 0 Z " fill="#323232" transform="translate(848,401)"/>
<path d="M0 0 C2.96175123 0.61277612 4.38058783 1.25372522 7 3 C7 3.66 7 4.32 7 5 C4.625 4.75 4.625 4.75 2 4 C0.6875 1.9375 0.6875 1.9375 0 0 Z " fill="#FBE1E1" transform="translate(1166,408)"/>
<path d="M0 0 C5.75 -0.125 5.75 -0.125 8 1 C8 1.66 8 2.32 8 3 C6.88625 2.979375 5.7725 2.95875 4.625 2.9375 C1.16784079 2.73619282 1.16784079 2.73619282 -1 4 C-0.67 2.68 -0.34 1.36 0 0 Z " fill="#E1E1E1" transform="translate(803,399)"/>
<path d="M0 0 C1.98 0 3.96 0 6 0 C6.66 1.32 7.32 2.64 8 4 C5.36 3.67 2.72 3.34 0 3 C0 2.01 0 1.02 0 0 Z " fill="#D7D7D7" transform="translate(688,399)"/>
<path d="M0 0 C0.33 0.99 0.66 1.98 1 3 C2.98 3 4.96 3 7 3 C7 3.66 7 4.32 7 5 C4.69 5 2.38 5 0 5 C-0.33 4.01 -0.66 3.02 -1 2 C-0.67 1.34 -0.34 0.68 0 0 Z " fill="#636976" transform="translate(931,495)"/>
<path d="M0 0 C2.31 0 4.62 0 7 0 C7.33 0.99 7.66 1.98 8 3 C2.25 3.125 2.25 3.125 0 2 C0 1.34 0 0.68 0 0 Z " fill="#292A2C" transform="translate(912,488)"/>
<path d="M0 0 C-0.66 1.32 -1.32 2.64 -2 4 C-3.98 4 -5.96 4 -8 4 C-5.52914451 0.29371676 -4.37054922 0 0 0 Z " fill="#F7CCCC" transform="translate(1249,409)"/>
<path d="M0 0 C1.32 1.32 2.64 2.64 4 4 C3.67 4.99 3.34 5.98 3 7 C1.68 6.34 0.36 5.68 -1 5 C-0.67 3.35 -0.34 1.7 0 0 Z " fill="#FCE7E7" transform="translate(1168,398)"/>
<path d="M0 0 C2.375 -0.125 2.375 -0.125 5 0 C5.66 0.66 6.32 1.32 7 2 C6.625 4.125 6.625 4.125 6 6 C4 4 2 2 0 0 Z " fill="#D9D9D9" transform="translate(905,399)"/>
<path d="M0 0 C0.78375 0.04125 1.5675 0.0825 2.375 0.125 C1.75625 0.558125 1.1375 0.99125 0.5 1.4375 C-1.8447245 3.12240483 -1.8447245 3.12240483 -3.625 6.125 C-4.25 4.25 -4.25 4.25 -4.625 2.125 C-2.625 0.125 -2.625 0.125 0 0 Z " fill="#D7D7D7" transform="translate(849.625,398.875)"/>
</svg>
